<?xml version="1.0" encoding="utf-8"?>
<!-- Generator: Adobe Illustrator 25.2.1, SVG Export Plug-In . SVG Version: 6.00 Build 0)  -->
<svg version="1.1" xmlns="http://www.w3.org/2000/svg" xmlns:xlink="http://www.w3.org/1999/xlink" x="0px" y="0px"
	 viewBox="0 0 72 72" style="enable-background:new 0 0 72 72;" xml:space="preserve">
<style type="text/css">
	.st0{display:none;}
	.st1{display:inline;}
	.st2{fill:#FE443F;}
	.st3{fill:#CC2725;}
	.st4{fill:#FE8E3F;}
	.st5{fill:#DB6A1A;}
	.st6{fill:#F6BC72;}
	.st7{fill:#DE9853;}
	.st8{fill:#D6EFFB;}
	.st9{fill:#ECEBED;}
	.st10{fill:#DFDFE0;}
	.st11{fill:#E5EAED;}
	.st12{fill:none;}
</style>
<g id="Layer_1" class="st0">
</g>
<g id="Draftt">
	<g>
		<g>
			<g>
				<path class="st7" d="M42.52,6.35h-7.12c-0.98,0-1.78,0.8-1.78,1.78s0.8,1.78,1.78,1.78h7.12c0.98,0,1.78-0.8,1.78-1.78
					S43.51,6.35,42.52,6.35z"/>
			</g>
		</g>
		<g>
			<path class="st7" d="M50.23,0H21.77c-4.15,0-7.53,3.38-7.53,7.53v56.93c0,4.15,3.38,7.53,7.53,7.53h28.47
				c4.15,0,7.53-3.38,7.53-7.53V7.53C57.77,3.38,54.39,0,50.23,0z M53.37,64.47c0,1.73-1.41,3.14-3.14,3.14H21.77
				c-1.73,0-3.14-1.41-3.14-3.14V7.53c0-1.73,1.41-3.14,3.14-3.14h28.47c1.73,0,3.14,1.41,3.14,3.14V64.47z"/>
		</g>
		<g>
			<g>
				<circle class="st7" cx="36" cy="62.09" r="3.56"/>
			</g>
		</g>
		<g>
			<g>
				<circle class="st7" cx="29.48" cy="8.13" r="1.78"/>
			</g>
		</g>
	</g>
</g>
</svg>
