<?xml version="1.0" encoding="utf-8"?>
<!-- Generator: Adobe Illustrator 25.2.1, SVG Export Plug-In . SVG Version: 6.00 Build 0)  -->
<svg version="1.1" xmlns="http://www.w3.org/2000/svg" xmlns:xlink="http://www.w3.org/1999/xlink" x="0px" y="0px"
	 viewBox="0 0 72 72" style="enable-background:new 0 0 72 72;" xml:space="preserve">
<style type="text/css">
	.st0{display:none;}
	.st1{display:inline;}
	.st2{fill:#FE443F;}
	.st3{fill:#CC2725;}
	.st4{fill:#FE8E3F;}
	.st5{fill:#DB6A1A;}
	.st6{fill:#F6BC72;}
	.st7{fill:#DE9853;}
	.st8{fill:#D6EFFB;}
	.st9{fill:#ECEBED;}
	.st10{fill:#DFDFE0;}
	.st11{fill:#E5EAED;}
	.st12{fill:none;}
</style>
<g id="Layer_1" class="st0">
</g>
<g id="Draftt">
	<g>
		<path class="st7" d="M24.84,46.69H61.3c1.02,0,1.94-0.69,2.22-1.67l8.39-29.36c0.2-0.7,0.06-1.44-0.38-2.02
			c-0.44-0.58-1.11-0.92-1.84-0.92H16.77l-1.92-6.72c-0.28-0.99-1.19-1.67-2.22-1.67H2.31C1.03,4.33,0,5.37,0,6.64
			s1.03,2.31,2.31,2.31h8.59c2.36,8.26,7.76,27.17,10.06,35.21l-0.76,1.52c-1.01,2.03-0.91,4.39,0.28,6.32
			c1.19,1.93,3.26,3.08,5.53,3.08h3.5c-2.46,0.93-4.21,3.3-4.21,6.08c0,3.58,2.92,6.5,6.5,6.5c3.58,0,6.5-2.92,6.5-6.5
			c0-2.78-1.75-5.15-4.21-6.08h16.52c-2.46,0.93-4.21,3.3-4.21,6.08c0,3.58,2.92,6.5,6.5,6.5c3.58,0,6.5-2.92,6.5-6.5
			c0-2.78-1.75-5.15-4.21-6.08h6.09c1.27,0,2.31-1.03,2.31-2.31s-1.03-2.31-2.31-2.31H26.01c-0.66,0-1.26-0.33-1.61-0.89
			c-0.35-0.56-0.38-1.25-0.08-1.84L24.84,46.69z M52.92,58.72c1.35,0,2.45,1.1,2.45,2.45c0,1.35-1.1,2.45-2.45,2.45
			c-1.35,0-2.45-1.1-2.45-2.45C50.47,59.82,51.57,58.72,52.92,58.72z M31.81,58.72c1.35,0,2.45,1.1,2.45,2.45
			c0,1.35-1.1,2.45-2.45,2.45c-1.35,0-2.45-1.1-2.45-2.45C29.36,59.82,30.46,58.72,31.81,58.72z M18.09,17.34h48.55l-7.07,24.75
			H25.16L18.09,17.34z"/>
	</g>
</g>
</svg>
