<?xml version="1.0" encoding="utf-8"?>
<!-- Generator: Adobe Illustrator 25.2.1, SVG Export Plug-In . SVG Version: 6.00 Build 0)  -->
<svg version="1.1" xmlns="http://www.w3.org/2000/svg" xmlns:xlink="http://www.w3.org/1999/xlink" x="0px" y="0px"
	 viewBox="0 0 72 72" style="enable-background:new 0 0 72 72;" xml:space="preserve">
<style type="text/css">
	.st0{display:none;}
	.st1{display:inline;}
	.st2{fill:#FE443F;}
	.st3{fill:#CC2725;}
	.st4{fill:#FE8E3F;}
	.st5{fill:#DB6A1A;}
	.st6{fill:#F6BC72;}
	.st7{fill:#DE9853;}
	.st8{fill:#D6EFFB;}
	.st9{fill:#ECEBED;}
	.st10{fill:#DFDFE0;}
	.st11{fill:#E5EAED;}
	.st12{fill:none;}
</style>
<g id="Layer_1" class="st0">
</g>
<g id="Draftt">
	<g id="Layer_3_1_">
		<path class="st7" d="M63.15,7.2H8.85C3.97,7.21,0.01,11.17,0,16.05v39.89c0.01,4.89,3.97,8.85,8.85,8.85h54.29
			c4.89-0.01,8.85-3.97,8.85-8.85V16.05C71.99,11.17,68.03,7.21,63.15,7.2z M8.85,12h54.29c2.24,0,4.05,1.82,4.05,4.05v1.84
			L36,37.95L4.8,17.89v-1.84C4.8,13.82,6.62,12,8.85,12z M63.15,60H8.85c-2.24,0-4.05-1.82-4.05-4.05V23.6l29.9,19.22
			c0.79,0.51,1.81,0.51,2.6,0L67.2,23.6v32.35C67.2,58.18,65.38,60,63.15,60z"/>
	</g>
</g>
</svg>
