<?xml version="1.0" encoding="utf-8"?>
<!-- Generator: Adobe Illustrator 25.2.1, SVG Export Plug-In . SVG Version: 6.00 Build 0)  -->
<svg version="1.1" xmlns="http://www.w3.org/2000/svg" xmlns:xlink="http://www.w3.org/1999/xlink" x="0px" y="0px"
	 viewBox="0 0 72 72" style="enable-background:new 0 0 72 72;" xml:space="preserve">
<style type="text/css">
	.st0{display:none;}
	.st1{display:inline;}
	.st2{fill:#FE443F;}
	.st3{fill:#CC2725;}
	.st4{fill:#FE8E3F;}
	.st5{fill:#DB6A1A;}
	.st6{fill:#F6BC72;}
	.st7{fill:#DE9853;}
	.st8{fill:#D6EFFB;}
	.st9{fill:#ECEBED;}
	.st10{fill:#DFDFE0;}
	.st11{fill:#E5EAED;}
	.st12{fill:none;}
</style>
<g id="Layer_1" class="st0">
</g>
<g id="Draftt">
	<g>
		<path d="M28.98,57.93c6.44,0,12.69-2.15,17.76-6.1L65.9,70.98c1.43,1.38,3.71,1.34,5.09-0.09c1.35-1.4,1.35-3.61,0-5L51.83,46.74
			c9.81-12.63,7.53-30.83-5.1-40.64S15.9-1.43,6.09,11.2s-7.53,30.83,5.1,40.64C16.28,55.79,22.54,57.93,28.98,57.93L28.98,57.93z
			 M13.59,13.58c8.5-8.5,22.28-8.5,30.78,0s8.5,22.28,0,30.78s-22.28,8.5-30.78,0c0,0,0,0,0,0c-8.5-8.44-8.55-22.17-0.11-30.67
			C13.51,13.66,13.55,13.62,13.59,13.58L13.59,13.58z"/>
	</g>
</g>
</svg>
