<?xml version="1.0" encoding="utf-8"?>
<!-- Generator: Adobe Illustrator 25.2.1, SVG Export Plug-In . SVG Version: 6.00 Build 0)  -->
<svg version="1.1" id="Layer_1" xmlns="http://www.w3.org/2000/svg" xmlns:xlink="http://www.w3.org/1999/xlink" x="0px" y="0px"
	 viewBox="0 0 72 72" style="enable-background:new 0 0 72 72;" xml:space="preserve">
<style type="text/css">
	.st0{fill:#FE443F;}
	.st1{fill:#CC2725;}
	.st2{fill:#FE8E3F;}
	.st3{fill:#DB6A1A;}
	.st4{fill:#F6BC72;}
	.st5{fill:#DE9853;}
	.st6{fill:#D6EFFB;}
	.st7{fill:#ECEBED;}
	.st8{fill:#DFDFE0;}
	.st9{fill:#E5EAED;}
	.st10{fill:none;}
</style>
<g>
	<path class="st0" d="M34.51,16.38c-3.86,0-7.34,1.77-9.8,4.61c-2.46-2.84-5.94-4.61-9.8-4.61c-7.45,0-13.48,6.6-13.48,14.75
		c0,11.41,23.28,27.24,23.28,27.24s23.28-15.83,23.28-27.24C47.99,22.98,41.95,16.38,34.51,16.38z"/>
	<path class="st4" d="M70.57,56.68l-2.56-4.9c-1.28-2.44-2.92-4.67-4.86-6.62l-6.95-6.95c-1.08-1.08-2.84-1.16-3.96-0.12
		c-1.18,1.09-1.2,2.94-0.07,4.06l-0.53-0.53l-0.95-0.94c-1.1-1.1-2.89-1.1-3.99,0c-1.1,1.1-1.1,2.89,0,3.99l-1.22-1.22
		c-1.08-1.08-2.84-1.16-3.96-0.12c-1.18,1.09-1.2,2.94-0.07,4.06l-6.48-6.48c-1.08-1.08-2.84-1.16-3.96-0.12
		c-1.18,1.09-1.2,2.94-0.07,4.06l14.45,14.45l-6.68-2c-1.54-0.46-3.17,0.39-3.68,1.92c-0.43,1.31,0.1,2.75,1.27,3.47l7.82,4.78
		c1.69,1.03,3.56,1.72,5.51,2.02l7.05,1.1l3.45-0.01c5.78-0.02,10.46-4.72,10.46-10.5V56.68z"/>
	<path d="M10.4,35.54c-0.43-0.65-1.3-0.82-1.95-0.39c-0.65,0.43-0.82,1.3-0.39,1.95c1.78,2.67,4.39,5.61,7.78,8.75
		c0.27,0.25,0.61,0.37,0.96,0.37c0.38,0,0.75-0.15,1.03-0.45c0.53-0.57,0.49-1.46-0.07-1.99C14.57,40.84,12.03,37.99,10.4,35.54z"/>
	<path d="M8.46,31.15c0,0,0-0.01,0-0.02c0-0.78-0.63-1.4-1.4-1.4c0,0,0,0,0,0c-0.77,0-1.4,0.63-1.41,1.41v0.05
		c0.01,0.77,0.64,1.39,1.41,1.39h0.02C7.85,32.56,8.47,31.92,8.46,31.15z"/>
	<path d="M71.82,56.03l-2.56-4.9c-1.34-2.57-3.06-4.91-5.12-6.96l-7-7c-0.8-0.8-1.86-1.24-2.99-1.24s-2.19,0.44-2.99,1.24
		c-0.45,0.45-0.78,0.98-0.98,1.55c-0.47-0.18-0.97-0.27-1.49-0.27c-0.63,0-1.23,0.14-1.78,0.39c1.65-2.81,2.49-5.39,2.49-7.71
		c0-8.91-6.68-16.16-14.89-16.16c-3.6,0-7.1,1.44-9.8,3.99c-2.7-2.55-6.19-3.99-9.8-3.99c-8.21,0-14.89,7.25-14.89,16.16
		c0,5.14,4.07,11.51,12.09,18.93c5.83,5.39,11.56,9.31,11.8,9.47c0.24,0.16,0.51,0.24,0.79,0.24c0.28,0,0.55-0.08,0.79-0.24
		c0.21-0.14,4.92-3.36,10.14-7.97l4.8,4.8l-1.35-0.4c-2.29-0.68-4.67,0.56-5.41,2.83c-0.64,1.94,0.13,4.04,1.88,5.11l7.82,4.78
		c1.85,1.13,3.88,1.88,6.03,2.21l7.05,1.1c0.07,0.01,0.15,0.02,0.22,0.02c0.68,0,1.28-0.5,1.39-1.19c0.12-0.77-0.41-1.48-1.17-1.6
		l-7.05-1.1c-1.78-0.28-3.46-0.89-4.99-1.83l-7.82-4.78c-0.63-0.38-0.9-1.13-0.67-1.83c0.27-0.81,1.12-1.26,1.94-1.01l6.68,2
		c0.62,0.18,1.28-0.07,1.61-0.63c0.33-0.55,0.24-1.26-0.21-1.71L31.92,43.87c-0.55-0.55-0.55-1.45,0-2c0.27-0.27,0.62-0.41,1-0.41
		c0.38,0,0.73,0.15,1,0.41l13.11,13.11c0.55,0.55,1.44,0.55,1.99,0c0.55-0.55,0.55-1.44,0-1.99l-6.59-6.59
		c-0.27-0.27-0.41-0.62-0.41-1c0-0.38,0.15-0.73,0.41-1s0.62-0.41,1-0.41c0.38,0,0.73,0.15,1,0.41l1.26,1.26c0,0,0,0,0,0l5.33,5.33
		c0.55,0.55,1.44,0.55,1.99,0c0.27-0.27,0.41-0.63,0.41-0.99c0-0.36-0.14-0.72-0.41-0.99l-5.33-5.33c-0.55-0.55-0.55-1.45,0-2
		c0.27-0.27,0.62-0.41,1-0.41c0.38,0,0.73,0.15,1,0.41L55.02,47c0.55,0.55,1.44,0.55,1.99,0s0.55-1.44,0-1.99l-3.86-3.86
		c-0.27-0.27-0.41-0.62-0.41-1c0-0.38,0.15-0.73,0.41-1c0.27-0.27,0.62-0.41,1-0.41c0.38,0,0.73,0.15,1,0.42l7,7
		c1.85,1.85,3.4,3.96,4.61,6.28l2.56,4.9c0.36,0.69,1.21,0.95,1.9,0.59C71.91,57.57,72.18,56.72,71.82,56.03z M39.62,43.58
		l-3.71-3.71c-0.8-0.8-1.86-1.24-2.99-1.24c-1.13,0-2.19,0.44-2.99,1.24c-1.65,1.65-1.65,4.33,0,5.98l3.72,3.72
		c-3.82,3.36-7.4,5.99-8.94,7.08c-1.77-1.26-6.25-4.55-10.69-8.66C6.7,41.23,2.83,35.4,2.83,31.13c0-7.36,5.42-13.35,12.08-13.35
		c3.33,0,6.43,1.47,8.73,4.13c0.27,0.31,0.65,0.49,1.06,0.49c0.41,0,0.8-0.18,1.06-0.49c2.3-2.66,5.4-4.13,8.73-4.13
		c6.66,0,12.08,5.99,12.08,13.35c0,2.86-1.72,6.4-5.11,10.52c-0.37,0.2-0.72,0.45-1.02,0.76C40.1,42.76,39.82,43.15,39.62,43.58z"/>
	<path d="M24.71,2.81c0.37,0,0.73-0.15,0.99-0.41s0.41-0.62,0.41-0.99c0-0.37-0.15-0.73-0.41-0.99C25.44,0.15,25.08,0,24.71,0
		s-0.73,0.15-0.99,0.41c-0.26,0.26-0.41,0.62-0.41,0.99c0,0.37,0.15,0.73,0.41,0.99C23.98,2.66,24.34,2.81,24.71,2.81z"/>
	<path d="M32.64,11.97c0.36,0,0.72-0.14,0.99-0.41l3.44-3.44c0.55-0.55,0.55-1.44,0-1.99s-1.44-0.55-1.99,0l-3.44,3.44
		c-0.55,0.55-0.55,1.44,0,1.99C31.92,11.83,32.28,11.97,32.64,11.97z"/>
	<path d="M15.77,11.55c0.27,0.27,0.63,0.41,0.99,0.41s0.72-0.14,0.99-0.41c0.55-0.55,0.55-1.44,0-1.99l-3.43-3.43
		c-0.55-0.55-1.44-0.55-1.99,0c-0.55,0.55-0.55,1.44,0,1.99L15.77,11.55z"/>
	<path d="M24.71,5.72c-0.78,0-1.41,0.63-1.41,1.41v4.4c0,0.78,0.63,1.41,1.41,1.41c0.78,0,1.41-0.63,1.41-1.41v-4.4
		C26.12,6.35,25.49,5.72,24.71,5.72z"/>
</g>
</svg>
