<?xml version="1.0" encoding="utf-8"?>
<!-- Generator: Adobe Illustrator 25.2.1, SVG Export Plug-In . SVG Version: 6.00 Build 0)  -->
<svg version="1.1" id="Layer_1" xmlns="http://www.w3.org/2000/svg" xmlns:xlink="http://www.w3.org/1999/xlink" x="0px" y="0px"
	 viewBox="0 0 72 72" style="enable-background:new 0 0 72 72;" xml:space="preserve">
<style type="text/css">
	.st0{fill:#FE443F;}
	.st1{fill:#CC2725;}
	.st2{fill:#FE8E3F;}
	.st3{fill:#DB6A1A;}
	.st4{fill:#F6BC72;}
	.st5{fill:#DE9853;}
	.st6{fill:#D6EFFB;}
	.st7{fill:#ECEBED;}
	.st8{fill:#DFDFE0;}
	.st9{fill:#E5EAED;}
	.st10{fill:none;}
</style>
<g>
	<path class="st4" d="M66.82,7.12v57.73H5.17V7.14L66.82,7.12z"/>
	<path class="st2" d="M46.21,38.3h14.58v26.55H46.21L46.21,38.3z"/>
	<path class="st2" d="M12.79,38.31h26.24v16.1H12.79L12.79,38.31z"/>
	<path class="st5" d="M1.12,64.82h69.75v5.05H1.12V64.82z"/>
	<path class="st5" d="M66.82,10.03v22.09c-0.67,0.31-1.39,0.5-2.13,0.57c-3.6,0.36-6.86-2.14-7.44-5.71l-0.09-0.48h-0.12
		c-0.09,3.86-3.29,6.93-7.15,6.84c-3.66-0.08-6.63-2.96-6.83-6.61V26.5H43c-0.08,3.86-3.28,6.93-7.14,6.85
		c-3.75-0.08-6.77-3.1-6.85-6.85h-0.06l-0.01,0.22c-0.21,3.86-3.51,6.82-7.36,6.61c-3.65-0.2-6.53-3.18-6.61-6.83h-0.12l-0.09,0.48
		c-0.58,3.57-3.84,6.08-7.44,5.71c-0.74-0.07-1.46-0.26-2.13-0.57V10.03L66.82,10.03z"/>
	<g>
		<path class="st1" d="M55.83,27.38c-2.19,3.19-6.54,4-9.73,1.82c-1.79-1.23-2.91-3.22-3.03-5.39l-0.9-16.69h12.33l2.47,15.19
			C57.26,24.09,56.86,25.91,55.83,27.38L55.83,27.38z"/>
		<path class="st1" d="M17.5,7.13l-2.76,16.93c-0.54,3.31-3.4,5.74-6.75,5.76c-0.23,0-0.46-0.01-0.69-0.03
			c-3.77-0.38-6.52-3.74-6.14-7.51c0.04-0.38,0.11-0.75,0.2-1.11L5.17,7.13L17.5,7.13z"/>
		<path class="st1" d="M29.83,7.12l-0.9,16.68c-0.22,3.7-3.28,6.6-6.99,6.61c-3.86,0-6.99-3.12-7-6.97c0-0.38,0.03-0.76,0.09-1.14
			L17.5,7.12L29.83,7.12z"/>
		<path class="st1" d="M43.03,23.42c-0.03,3.88-3.2,7.01-7.09,6.98c-3.88-0.03-7.01-3.2-6.98-7.09c0-0.1,0-0.2,0.01-0.3l0.85-15.88
			l12.33-0.01l0.85,15.9C43.02,23.15,43.03,23.29,43.03,23.42L43.03,23.42z"/>
		<path class="st1" d="M69.7,26.8c-1.14,1.7-2.98,2.8-5.01,3c-0.23,0.02-0.46,0.03-0.69,0.03c-3.36,0-6.22-2.44-6.75-5.76
			L54.49,7.12h12.33l3.81,14.05C71.15,23.1,70.82,25.15,69.7,26.8L69.7,26.8z"/>
	</g>
	<path class="st0" d="M55.83,27.37c-3.56,1.51-7.68-0.15-9.19-3.71c-0.32-0.75-0.5-1.55-0.55-2.36L45.33,7.12h9.16l2.47,15.18
		C57.26,24.07,56.86,25.89,55.83,27.37L55.83,27.37z"/>
	<path class="st0" d="M17.5,7.12l-2.76,16.93c-0.16,0.97-0.52,1.89-1.06,2.7c-0.84,0.37-1.75,0.56-2.67,0.55
		c-0.23,0-0.46-0.01-0.69-0.03c-3.76-0.38-6.51-3.73-6.13-7.5c0.04-0.38,0.11-0.75,0.21-1.11L7.53,7.12L17.5,7.12z"/>
	<path class="st0" d="M29.83,7.12l-0.9,16.68c-0.07,1.27-0.49,2.5-1.21,3.55c-0.86,0.38-1.8,0.58-2.74,0.57
		c-3.86,0-6.99-3.13-7-6.99c0-0.38,0.03-0.76,0.09-1.14l2.07-12.67L29.83,7.12z"/>
	<path class="st0" d="M43.03,23.41c0,1.41-0.42,2.78-1.21,3.94c-0.88,0.37-1.83,0.57-2.79,0.57c-3.89,0-7.05-3.16-7.04-7.05
		c0-0.12,0-0.25,0.01-0.37l0.73-13.38h9.43l0.85,15.88C43.02,23.14,43.03,23.28,43.03,23.41z"/>
	<path class="st0" d="M69.7,26.8c-0.63,0.26-1.3,0.43-1.98,0.49c-0.23,0.02-0.46,0.03-0.69,0.03c-3.36,0-6.23-2.44-6.76-5.76
		L57.93,7.12h8.89l3.81,14.05C71.15,23.1,70.82,25.15,69.7,26.8z"/>
	<path class="st5" d="M5.17,2.13h61.67v5.04H5.17V2.13z"/>
	<g id="outline">
		<path d="M12.79,37.19c-0.62,0-1.12,0.5-1.12,1.12v16.1c0,0.62,0.5,1.12,1.12,1.12h26.24c0.62,0,1.12-0.5,1.12-1.12v-16.1
			c0-0.62-0.5-1.12-1.12-1.12H12.79z M37.9,53.29H13.91V39.44H37.9V53.29z"/>
		<path d="M7.19,30.91c3.02,0.31,5.96-1.14,7.55-3.73c2.05,3.97,6.93,5.52,10.9,3.47c1.38-0.72,2.53-1.81,3.31-3.17
			c0.32,0.55,0.7,1.06,1.13,1.52c3.1,3.27,8.27,3.41,11.54,0.31c0.11-0.1,0.21-0.21,0.31-0.31c0.43-0.46,0.81-0.97,1.13-1.52
			c2.23,3.88,7.19,5.21,11.06,2.97c1.34-0.77,2.43-1.91,3.14-3.28c2.32,3.74,7.23,4.89,10.97,2.57c3-1.86,4.41-5.47,3.49-8.87
			l-3.77-13.9V2.13c0-0.62-0.5-1.12-1.12-1.12H5.17C4.55,1,4.05,1.51,4.05,2.13v4.86l-3.77,13.9c-1.15,4.25,1.36,8.64,5.61,9.79
			C6.32,30.79,6.75,30.87,7.19,30.91L7.19,30.91z M21.94,29.31c-3.24,0-5.87-2.63-5.87-5.87c0-0.32,0.03-0.63,0.08-0.94l2.31-14.24
			h10.19l-0.8,14.7l-0.04,0.8C27.64,26.87,25.06,29.31,21.94,29.31L21.94,29.31z M40.29,27.47c-2.24,2.37-5.98,2.48-8.36,0.24
			c-1.27-1.19-1.94-2.89-1.84-4.62l0.05-0.87l0.75-13.96h10.2l0.75,13.96l0.05,0.87C41.98,24.7,41.41,26.29,40.29,27.47L40.29,27.47
			z M54.53,27.24c-2.1,2.47-5.81,2.77-8.28,0.66c-1.23-1.04-1.97-2.55-2.06-4.15l-0.04-0.8l-0.8-14.7h10.19l2.31,14.24
			C56.13,24.2,55.65,25.94,54.53,27.24L54.53,27.24z M68.73,26.23c-1.8,2.61-5.36,3.26-7.97,1.47c-1.29-0.89-2.15-2.26-2.4-3.8
			L55.82,8.25h10.15l3.58,13.22C69.99,23.1,69.69,24.84,68.73,26.23z M6.3,3.25h59.4V6H6.3V3.25z M2.45,21.48L6.03,8.25h10.15
			l-1.57,9.64l-0.69,4.24l-0.28,1.76c-0.51,3.12-3.45,5.24-6.58,4.73c-3.12-0.51-5.24-3.45-4.73-6.58
			C2.36,21.86,2.4,21.66,2.45,21.48L2.45,21.48z"/>
		<path d="M70.87,63.69h-2.92V33.41c0-0.62-0.5-1.12-1.12-1.12c-0.62,0-1.12,0.5-1.12,1.12v30.28h-3.77V38.31
			c0-0.62-0.5-1.12-1.12-1.12H46.22c-0.62,0-1.12,0.5-1.12,1.12v25.38H6.3V33.43c0-0.62-0.5-1.12-1.12-1.12s-1.12,0.5-1.12,1.12
			v30.27H1.12C0.5,63.69,0,64.2,0,64.82v5.05C0,70.5,0.5,71,1.12,71h69.75c0.62,0,1.12-0.5,1.12-1.12v-5.05
			C72,64.2,71.49,63.69,70.87,63.69z M47.35,39.44h12.33v24.26H47.35V39.44z M69.75,68.75H2.25v-2.8h67.5V68.75z"/>
	</g>
</g>
</svg>
