<?xml version="1.0" encoding="utf-8"?>
<!-- Generator: Adobe Illustrator 25.2.1, SVG Export Plug-In . SVG Version: 6.00 Build 0)  -->
<svg version="1.1" id="Layer_1" xmlns="http://www.w3.org/2000/svg" xmlns:xlink="http://www.w3.org/1999/xlink" x="0px" y="0px"
	 viewBox="0 0 72 72" style="enable-background:new 0 0 72 72;" xml:space="preserve">
<style type="text/css">
	.st0{fill:#FE443F;}
	.st1{fill:#CC2725;}
	.st2{fill:#FE8E3F;}
	.st3{fill:#DB6A1A;}
	.st4{fill:#F6BC72;}
	.st5{fill:#DE9853;}
	.st6{fill:#D6EFFB;}
	.st7{fill:#ECEBED;}
	.st8{fill:#DFDFE0;}
	.st9{fill:#E5EAED;}
	.st10{fill:none;}
</style>
<g>
	<path class="st1" d="M12.89,14.04h45.18v-0.66c0-2.9-2.35-5.25-5.25-5.25h-42.5c-4.92,0-8.91,3.99-8.91,8.91v29.8
		c0,2.9,2.35,5.25,5.25,5.25h0.72V19.54C7.38,16.5,9.85,14.04,12.89,14.04z"/>
	<path class="st0" d="M13.93,47.69v-23.2c0-2.52,2.05-4.57,4.57-4.57h45.54v-0.63c0-2.9-2.35-5.25-5.25-5.25h-45.9
		c-3.04,0-5.5,2.46-5.5,5.5v33.2c0,2.9,2.35,5.25,5.25,5.25h1.29V47.69z"/>
	<g>
		<path class="st6" d="M14.48,61.49c-0.07-0.13-0.13-0.26-0.19-0.4C14.35,61.23,14.41,61.36,14.48,61.49z"/>
		<path class="st6" d="M16.93,63.6c-0.14-0.05-0.28-0.11-0.41-0.17C16.65,63.49,16.79,63.55,16.93,63.6z"/>
		<path class="st6" d="M17.36,63.74c-0.15-0.04-0.29-0.08-0.43-0.13C17.07,63.66,17.21,63.7,17.36,63.74z"/>
		<path class="st6" d="M70.23,61.09c-0.06,0.14-0.12,0.27-0.19,0.4C70.11,61.36,70.18,61.23,70.23,61.09z"/>
		<path class="st6" d="M70.59,59.31c0,0.24-0.02,0.47-0.05,0.7C70.58,59.78,70.59,59.55,70.59,59.31z"/>
		<path class="st6" d="M70.5,60.23c-0.03,0.15-0.07,0.29-0.11,0.44C70.43,60.53,70.47,60.38,70.5,60.23z"/>
		<path class="st6" d="M18.5,63.88c-0.39,0-0.78-0.05-1.14-0.14C17.73,63.83,18.11,63.88,18.5,63.88z"/>
		<path class="st6" d="M13.93,59.31c0,0.24,0.02,0.47,0.05,0.7C13.95,59.78,13.93,59.55,13.93,59.31z"/>
		<path class="st6" d="M14.14,60.67c-0.04-0.14-0.08-0.29-0.11-0.44C14.05,60.38,14.09,60.53,14.14,60.67z"/>
		<path class="st6" d="M16.32,63.33c-0.13-0.07-0.26-0.15-0.38-0.23C16.07,63.18,16.19,63.26,16.32,63.33z"/>
		<path class="st5" d="M66.02,19.92H18.5c-2.52,0-4.57,2.05-4.57,4.57v23.2l15.44-13.62c1.33-1.17,3.34-1.09,4.57,0.18l15.61,16.09
			l8.73-6.36c1.18-0.86,2.78-0.85,3.95,0.03l8.37,6.32V24.49C70.59,21.97,68.55,19.92,66.02,19.92z M54.64,37.68
			c-2.55,0-4.61-2.06-4.61-4.61c0-2.55,2.06-4.61,4.61-4.61c2.55,0,4.61,2.06,4.61,4.61C59.25,35.61,57.18,37.68,54.64,37.68z"/>
	</g>
	<path class="st4" d="M62.22,44.02c-1.17-0.88-2.77-0.89-3.95-0.03l-8.73,6.36L33.94,34.25c-1.23-1.27-3.24-1.35-4.57-0.18
		L13.93,47.69v11.62c0,0.24,0.02,0.47,0.05,0.7c0.01,0.08,0.02,0.15,0.04,0.23c0.03,0.15,0.07,0.29,0.11,0.44
		c0.04,0.14,0.1,0.28,0.15,0.42s0.12,0.27,0.19,0.4c0.35,0.65,0.86,1.2,1.46,1.61c0.12,0.08,0.25,0.16,0.38,0.23
		c0.06,0.04,0.13,0.07,0.2,0.1c0.13,0.06,0.27,0.12,0.41,0.17c0.14,0.05,0.28,0.1,0.43,0.13c0.37,0.09,0.75,0.14,1.14,0.14h47.52
		c1.74,0,3.25-0.97,4.02-2.39c0.07-0.13,0.13-0.26,0.19-0.4c0.06-0.14,0.11-0.28,0.15-0.42c0.04-0.14,0.08-0.29,0.11-0.44
		c0.02-0.07,0.03-0.15,0.04-0.23c0.03-0.23,0.05-0.46,0.05-0.7v-8.97L62.22,44.02z"/>
	<path class="st0" d="M59.25,33.07c0,2.55-2.06,4.61-4.61,4.61c-2.55,0-4.61-2.06-4.61-4.61c0-2.55,2.06-4.61,4.61-4.61
		C57.18,28.46,59.25,30.52,59.25,33.07z"/>
	<path d="M66.02,18.51H65.4c-0.36-3.1-2.85-5.55-5.97-5.85c-0.36-3.34-3.19-5.95-6.62-5.95h-42.5C4.63,6.71,0,11.34,0,17.03v29.8
		c0,3.46,2.64,6.3,6.02,6.63c0.35,3.3,3.13,5.89,6.51,5.94c0.01,0.59,0.1,1.15,0.27,1.69c0.76,2.43,3.03,4.2,5.71,4.2h47.52
		c3.3,0,5.98-2.68,5.98-5.98V24.49C72,21.19,69.32,18.51,66.02,18.51z M69.19,24.49v23.03l-6.12-4.62
		c-1.67-1.26-3.93-1.28-5.62-0.05l-7.74,5.64L34.95,33.27c-1.76-1.81-4.62-1.92-6.51-0.25l-13.1,11.56V24.49
		c0-1.75,1.42-3.17,3.17-3.17h47.52C67.77,21.33,69.19,22.75,69.19,24.49z M69.19,59.31c0,1.75-1.42,3.17-3.17,3.17H18.5
		c-1.42,0-2.62-0.94-3.02-2.23c-0.09-0.3-0.14-0.61-0.14-0.94V48.33l14.96-13.2c0.77-0.68,1.92-0.63,2.63,0.1l6.66,6.87c0,0,0,0,0,0
		l13.26,13.67c0.28,0.28,0.64,0.43,1.01,0.43c0.35,0,0.71-0.13,0.98-0.4c0.56-0.54,0.57-1.43,0.03-1.99l-3.18-3.28l7.42-5.4
		c0.68-0.5,1.6-0.49,2.27,0.02l7.81,5.9V59.31z M8.79,52.74v-33.2c0-0.14,0.01-0.28,0.02-0.42c0.21-2.06,1.96-3.68,4.08-3.68h17.2
		c0.78,0,1.41-0.63,1.41-1.41s-0.63-1.41-1.41-1.41h-17.2c-3.81,0-6.91,3.1-6.91,6.91v31.07c-1.8-0.32-3.16-1.9-3.16-3.79v-29.8
		c0-4.14,3.37-7.5,7.5-7.5h42.5c1.87,0,3.43,1.34,3.77,3.1H41.34c-0.78,0-1.41,0.63-1.41,1.41s0.63,1.41,1.41,1.41h16.73h0h0.72
		c1.86,0,3.41,1.32,3.77,3.07H18.5c-3.3,0-5.98,2.68-5.98,5.98v23.2v0v8.9C10.46,56.53,8.79,54.83,8.79,52.74z"/>
	<path d="M54.64,27.05c-3.32,0-6.02,2.7-6.02,6.02c0,3.32,2.7,6.02,6.02,6.02c3.32,0,6.02-2.7,6.02-6.02
		C60.65,29.75,57.95,27.05,54.64,27.05z M54.64,36.27c-1.77,0-3.21-1.44-3.21-3.21c0-1.77,1.44-3.21,3.21-3.21
		c1.77,0,3.21,1.44,3.21,3.21C57.84,34.83,56.4,36.27,54.64,36.27z"/>
	<path d="M34.42,14.57c0.04,0.08,0.08,0.17,0.13,0.24c0.05,0.08,0.11,0.15,0.17,0.21c0.06,0.06,0.14,0.12,0.21,0.18
		c0.08,0.05,0.16,0.09,0.24,0.13c0.08,0.04,0.17,0.06,0.26,0.08c0.09,0.02,0.18,0.03,0.27,0.03c0.09,0,0.18-0.01,0.28-0.03
		c0.09-0.02,0.18-0.05,0.26-0.08c0.08-0.04,0.17-0.08,0.24-0.13c0.08-0.05,0.15-0.11,0.21-0.18c0.07-0.06,0.12-0.14,0.18-0.21
		c0.05-0.08,0.09-0.16,0.13-0.24c0.04-0.09,0.06-0.17,0.08-0.26c0.02-0.09,0.03-0.18,0.03-0.28c0-0.09-0.01-0.18-0.03-0.27
		c-0.02-0.09-0.05-0.18-0.08-0.26c-0.04-0.09-0.08-0.17-0.13-0.24c-0.05-0.08-0.11-0.15-0.18-0.21c-0.06-0.06-0.14-0.12-0.21-0.17
		c-0.08-0.05-0.16-0.09-0.24-0.13c-0.09-0.04-0.17-0.06-0.26-0.08c-0.18-0.04-0.37-0.04-0.55,0c-0.09,0.02-0.18,0.05-0.26,0.08
		c-0.08,0.04-0.17,0.08-0.24,0.13c-0.08,0.05-0.15,0.11-0.21,0.17s-0.12,0.14-0.17,0.21c-0.05,0.08-0.09,0.16-0.13,0.24
		c-0.04,0.08-0.06,0.17-0.08,0.26c-0.02,0.09-0.03,0.18-0.03,0.27c0,0.09,0.01,0.18,0.03,0.28C34.35,14.4,34.38,14.49,34.42,14.57z"
		/>
</g>
</svg>
