<?xml version="1.0" encoding="utf-8"?>
<!-- Generator: Adobe Illustrator 25.2.1, SVG Export Plug-In . SVG Version: 6.00 Build 0)  -->
<svg version="1.1" xmlns="http://www.w3.org/2000/svg" xmlns:xlink="http://www.w3.org/1999/xlink" x="0px" y="0px"
	 viewBox="0 0 64 64" style="enable-background:new 0 0 64 64;" xml:space="preserve">
<style type="text/css">
	.st0{display:none;}
	.st1{display:inline;}
	.st2{fill:#FE443F;}
	.st3{fill:#CC2725;}
	.st4{fill:#FE8E3F;}
	.st5{fill:#DB6A1A;}
	.st6{fill:#F6BC72;}
	.st7{fill:#DE9853;}
	.st8{fill:#D6EFFB;}
	.st9{fill:#ECEBED;}
	.st10{fill:#DFDFE0;}
	.st11{fill:#E5EAED;}
	.st12{fill:none;}
</style>
<g id="Layer_1" class="st0">
</g>
<g id="Draftt">
	<g id="_x31_4_comment_1_">
		<g>
			<path class="st7" d="M14.93,61.87c-0.31,0-0.63-0.07-0.93-0.21c-0.74-0.36-1.21-1.1-1.21-1.92V49.07H6.4
				c-3.53,0-6.4-2.87-6.4-6.4V8.53C0,5,2.87,2.13,6.4,2.13h51.2c3.53,0,6.4,2.87,6.4,6.4v34.13c0,3.53-2.87,6.4-6.4,6.4H31.68
				L16.27,61.4C15.88,61.71,15.41,61.87,14.93,61.87z M6.4,6.4c-1.18,0-2.13,0.96-2.13,2.13v34.13c0,1.18,0.96,2.13,2.13,2.13h8.53
				c1.18,0,2.13,0.95,2.13,2.13v8.36L29.6,45.27c0.38-0.3,0.85-0.47,1.33-0.47H57.6c1.18,0,2.13-0.96,2.13-2.13V8.53
				c0-1.18-0.96-2.13-2.13-2.13H6.4z"/>
		</g>
		<g>
			<path class="st7" d="M49.07,23.47H14.93c-1.18,0-2.13-0.96-2.13-2.13c0-1.18,0.95-2.13,2.13-2.13h34.13
				c1.18,0,2.13,0.96,2.13,2.13C51.2,22.51,50.25,23.47,49.07,23.47z"/>
		</g>
		<g>
			<path class="st7" d="M32,32H14.93c-1.18,0-2.13-0.96-2.13-2.13s0.95-2.13,2.13-2.13H32c1.18,0,2.13,0.96,2.13,2.13
				S33.18,32,32,32z"/>
		</g>
	</g>
</g>
</svg>
