<?xml version="1.0" encoding="utf-8"?>
<!-- Generator: Adobe Illustrator 25.2.1, SVG Export Plug-In . SVG Version: 6.00 Build 0)  -->
<svg version="1.1" xmlns="http://www.w3.org/2000/svg" xmlns:xlink="http://www.w3.org/1999/xlink" x="0px" y="0px"
	 viewBox="0 0 64 64" style="enable-background:new 0 0 64 64;" xml:space="preserve">
<style type="text/css">
	.st0{display:none;}
	.st1{display:inline;}
	.st2{fill:#FE443F;}
	.st3{fill:#CC2725;}
	.st4{fill:#FE8E3F;}
	.st5{fill:#DB6A1A;}
	.st6{fill:#F6BC72;}
	.st7{fill:#DE9853;}
	.st8{fill:#D6EFFB;}
	.st9{fill:#ECEBED;}
	.st10{fill:#DFDFE0;}
	.st11{fill:#E5EAED;}
	.st12{fill:none;}
</style>
<g id="Layer_1" class="st0">
</g>
<g id="Draftt">
	<path id="XMLID_32_" d="M62.43,27.96L37.45,4.31c-3.06-2.89-7.85-2.89-10.91,0L1.63,27.9c-1.51,1.32-2.03,3.39-1.32,5.27
		c0.71,1.88,2.46,3.09,4.46,3.09H6.4v23.47c0,1.18,0.96,2.13,2.13,2.13h46.93c1.18,0,2.13-0.96,2.13-2.13V36.27h1.63
		c2,0,3.75-1.22,4.46-3.1C64.39,31.29,63.87,29.22,62.43,27.96L62.43,27.96z M25.6,57.6V46.93c0-3.53,2.87-6.4,6.4-6.4
		c3.53,0,6.4,2.87,6.4,6.4V57.6H25.6z M59.23,32h-3.76c-1.18,0-2.13,0.96-2.13,2.13V57.6H42.67V46.93c0-5.88-4.78-10.67-10.67-10.67
		s-10.67,4.78-10.67,10.67V57.6H10.67V34.13c0-1.18-0.96-2.13-2.13-2.13H4.77c-0.42,0-0.73-0.53-0.27-0.94L29.48,7.4
		c1.41-1.34,3.63-1.34,5.04,0l25.04,23.71C59.91,31.42,59.69,32,59.23,32z"/>
</g>
</svg>
