<?xml version="1.0" encoding="utf-8"?>
<!-- Generator: Adobe Illustrator 25.2.1, SVG Export Plug-In . SVG Version: 6.00 Build 0)  -->
<svg version="1.1" xmlns="http://www.w3.org/2000/svg" xmlns:xlink="http://www.w3.org/1999/xlink" x="0px" y="0px"
	 viewBox="0 0 64 64" style="enable-background:new 0 0 64 64;" xml:space="preserve">
<style type="text/css">
	.st0{display:none;}
	.st1{display:inline;}
	.st2{fill:#FE443F;}
	.st3{fill:#CC2725;}
	.st4{fill:#FE8E3F;}
	.st5{fill:#DB6A1A;}
	.st6{fill:#F6BC72;}
	.st7{fill:#DE9853;}
	.st8{fill:#D6EFFB;}
	.st9{fill:#ECEBED;}
	.st10{fill:#DFDFE0;}
	.st11{fill:#E5EAED;}
	.st12{fill:none;}
</style>
<g id="Layer_1" class="st0">
</g>
<g id="Draftt">
	<path id="XMLID_929_" d="M17.57,64h28.87c4.67,0,8.57-3.5,9.09-8.13l3.89-35.04c0.07-0.65-0.13-1.29-0.57-1.78
		c-0.43-0.48-1.05-0.76-1.7-0.76H45.71v-4.57C45.71,6.15,39.56,0,32,0S18.29,6.15,18.29,13.71v4.57H6.86c-0.65,0-1.27,0.28-1.7,0.76
		c-0.43,0.48-0.64,1.13-0.57,1.78l3.89,35.04C8.99,60.5,12.9,64,17.57,64z M22.86,13.71c0-5.04,4.1-9.14,9.14-9.14
		s9.14,4.1,9.14,9.14v4.57H22.86V13.71z M18.29,22.86v4.57c-1.26,0-2.29,1.02-2.29,2.29S17.02,32,18.29,32h4.57
		c1.26,0,2.29-1.02,2.29-2.29s-1.02-2.29-2.29-2.29v-4.57h18.29v4.57c-1.26,0-2.29,1.02-2.29,2.29S39.88,32,41.14,32h4.57
		c1.26,0,2.29-1.02,2.29-2.29s-1.02-2.29-2.29-2.29v-4.57h8.88l-3.61,32.51c-0.26,2.32-2.21,4.07-4.54,4.07H17.57
		c-2.33,0-4.29-1.75-4.54-4.07L9.41,22.86L18.29,22.86z"/>
</g>
</svg>
