<?xml version="1.0" encoding="utf-8"?>
<!-- Generator: Adobe Illustrator 25.2.1, SVG Export Plug-In . SVG Version: 6.00 Build 0)  -->
<svg version="1.1" xmlns="http://www.w3.org/2000/svg" xmlns:xlink="http://www.w3.org/1999/xlink" x="0px" y="0px"
	 viewBox="0 0 64 64" style="enable-background:new 0 0 64 64;" xml:space="preserve">
<style type="text/css">
	.st0{display:none;}
	.st1{display:inline;}
	.st2{fill:#FE443F;}
	.st3{fill:#CC2725;}
	.st4{fill:#FE8E3F;}
	.st5{fill:#DB6A1A;}
	.st6{fill:#F6BC72;}
	.st7{fill:#DE9853;}
	.st8{fill:#D6EFFB;}
	.st9{fill:#ECEBED;}
	.st10{fill:#DFDFE0;}
	.st11{fill:#E5EAED;}
	.st12{fill:none;}
</style>
<g id="Layer_1" class="st0">
</g>
<g id="Draftt">
	<g>
		<g>
			<path d="M60.77,23.54l-6.59-2.8c0.81-2.09,1.31-4.01,1.31-5.55c0-8.03-6.54-14.57-14.57-14.57S26.36,7.17,26.36,15.2
				c0,1.62,0.56,3.67,1.45,5.89l-5.19,2.38c-0.61,0.28-1.46,0.28-2.06,0L8.84,18.11c-2.09-0.95-4.66-0.79-6.54,0.43
				C0.84,19.47,0,20.91,0,22.48v28.76c0,1.84,1.18,3.51,3.07,4.37l15.62,7.14c0.89,0.41,1.89,0.62,2.89,0.62c1,0,2-0.2,2.88-0.61
				l15.51-7.09c0.59-0.27,1.4-0.28,2-0.02l13.34,5.66c2.09,0.89,4.62,0.68,6.45-0.53c1.42-0.94,2.23-2.37,2.23-3.91V27.99
				C64,26.09,62.76,24.39,60.77,23.54L60.77,23.54z M40.93,5.1c5.57,0,10.1,4.53,10.1,10.1c0,3.89-5.61,13.42-10.1,20.02
				c-4.49-6.6-10.1-16.13-10.1-20.02C30.83,9.63,35.36,5.1,40.93,5.1L40.93,5.1z M57.07,57.2l-13.35-5.67
				c-1.77-0.75-3.86-0.72-5.6,0.07L23.7,58.19V34.2c0-1.23-1-2.23-2.23-2.23c-1.23,0-2.23,1-2.23,2.23v23.89L4.92,51.55
				c-0.33-0.15-0.44-0.32-0.46-0.31L4.46,22.52c0.02-0.04,0.18-0.24,0.59-0.4c0.61-0.23,1.35-0.22,1.93,0.05l11.72,5.37
				c1.78,0.81,3.98,0.81,5.77,0l5.2-2.38c3.49,6.9,8.61,14.09,9.45,15.27c0.42,0.58,1.09,0.93,1.81,0.93c0.72,0,1.39-0.34,1.81-0.93
				c0.86-1.19,6.13-8.6,9.62-15.6l6.66,2.83c0.37,0.16,0.49,0.34,0.51,0.33l0.01,28.84C59.41,57.13,58.24,57.69,57.07,57.2
				L57.07,57.2z"/>
			<circle cx="40.93" cy="15.2" r="3.72"/>
		</g>
	</g>
</g>
</svg>
