<?xml version="1.0" encoding="utf-8"?>
<!-- Generator: Adobe Illustrator 25.2.1, SVG Export Plug-In . SVG Version: 6.00 Build 0)  -->
<svg version="1.1" xmlns="http://www.w3.org/2000/svg" xmlns:xlink="http://www.w3.org/1999/xlink" x="0px" y="0px"
	 viewBox="0 0 64 64" style="enable-background:new 0 0 64 64;" xml:space="preserve">
<style type="text/css">
	.st0{display:none;}
	.st1{display:inline;}
	.st2{fill:#FE443F;}
	.st3{fill:#CC2725;}
	.st4{fill:#FE8E3F;}
	.st5{fill:#DB6A1A;}
	.st6{fill:#F6BC72;}
	.st7{fill:#DE9853;}
	.st8{fill:#D6EFFB;}
	.st9{fill:#ECEBED;}
	.st10{fill:#DFDFE0;}
	.st11{fill:#E5EAED;}
	.st12{fill:none;}
</style>
<g id="Layer_1" class="st0">
</g>
<g id="Draftt">
	<g>
		<g>
			<path class="st7" d="M61.35,23.37l-6.72-2.85c0.82-2.13,1.34-4.1,1.34-5.66C55.97,6.67,49.3,0,41.11,0S26.25,6.67,26.25,14.86
				c0,1.65,0.57,3.74,1.48,6.01l-5.3,2.42c-0.62,0.28-1.49,0.28-2.1,0L8.37,17.83c-2.13-0.97-4.75-0.8-6.67,0.44
				c-1.49,0.96-2.34,2.42-2.34,4.03v29.33c0,1.87,1.2,3.58,3.13,4.46l15.94,7.29c0.91,0.42,1.93,0.63,2.95,0.63
				c1.02,0,2.04-0.21,2.94-0.63l15.82-7.23c0.6-0.27,1.43-0.28,2.05-0.02l13.61,5.78c2.13,0.91,4.71,0.69,6.58-0.54
				c1.45-0.96,2.28-2.41,2.28-3.99V27.91C64.64,25.98,63.38,24.24,61.35,23.37L61.35,23.37z M41.11,4.56
				c5.68,0,10.31,4.62,10.31,10.31c0,3.96-5.73,13.69-10.31,20.43c-4.58-6.73-10.31-16.46-10.31-20.43
				C30.8,9.18,35.43,4.56,41.11,4.56L41.11,4.56z M57.57,57.7l-13.62-5.78c-1.81-0.76-3.94-0.73-5.71,0.07l-14.71,6.73V34.25
				c0-1.26-1.02-2.28-2.28-2.28s-2.28,1.02-2.28,2.28v24.37l-14.6-6.68c-0.33-0.15-0.45-0.33-0.47-0.32L3.9,22.33
				c0.02-0.04,0.18-0.25,0.61-0.41c0.63-0.24,1.38-0.22,1.97,0.05l11.96,5.48c1.81,0.82,4.06,0.82,5.88,0l5.3-2.43
				c3.56,7.04,8.78,14.38,9.65,15.58c0.43,0.59,1.12,0.95,1.85,0.95s1.42-0.35,1.85-0.95c0.88-1.22,6.25-8.77,9.82-15.91l6.8,2.88
				c0.37,0.16,0.5,0.35,0.52,0.34l0.01,29.42C59.97,57.64,58.76,58.21,57.57,57.7L57.57,57.7z"/>
			<circle class="st7" cx="41.11" cy="14.86" r="3.8"/>
		</g>
	</g>
</g>
</svg>
