<?xml version="1.0" encoding="utf-8"?>
<!-- Generator: Adobe Illustrator 25.2.1, SVG Export Plug-In . SVG Version: 6.00 Build 0)  -->
<svg version="1.1" xmlns="http://www.w3.org/2000/svg" xmlns:xlink="http://www.w3.org/1999/xlink" x="0px" y="0px"
	 viewBox="0 0 72 72" style="enable-background:new 0 0 72 72;" xml:space="preserve">
<style type="text/css">
	.st0{display:none;}
	.st1{display:inline;}
	.st2{fill:#FE443F;}
	.st3{fill:#CC2725;}
	.st4{fill:#FE8E3F;}
	.st5{fill:#DB6A1A;}
	.st6{fill:#F6BC72;}
	.st7{fill:#DE9853;}
	.st8{fill:#D6EFFB;}
	.st9{fill:#ECEBED;}
	.st10{fill:#DFDFE0;}
	.st11{fill:#E5EAED;}
	.st12{fill:none;}
</style>
<g id="Layer_1" class="st0">
</g>
<g id="Draftt">
	<path class="st7" d="M0,68.73C0,70.53,1.46,72,3.27,72s3.27-1.47,3.27-3.27c0-11.55,6.65-21.77,17.01-26.61
		c3.59,2.33,7.85,3.7,12.44,3.7c4.6,0,8.89-1.38,12.48-3.72c3.09,1.46,5.96,3.43,8.35,5.81c5.56,5.57,8.63,12.96,8.63,20.82
		c0,1.81,1.46,3.27,3.27,3.27c1.81,0,3.27-1.47,3.27-3.27c0-9.61-3.75-18.65-10.55-25.45c-2.28-2.28-4.92-4.23-7.76-5.84
		c3.25-3.96,5.21-9.02,5.21-14.53C58.91,10.28,48.63,0,36,0S13.09,10.28,13.09,22.91c0,5.5,1.95,10.55,5.19,14.5
		C7.04,43.73,0,55.55,0,68.73z M36,6.55c9.02,0,16.36,7.34,16.36,16.36S45.02,39.27,36,39.27s-16.36-7.34-16.36-16.36
		S26.97,6.55,36,6.55z"/>
</g>
</svg>
