<?xml version="1.0" encoding="utf-8"?>
<!-- Generator: Adobe Illustrator 25.2.1, SVG Export Plug-In . SVG Version: 6.00 Build 0)  -->
<svg version="1.1" id="Layer_1" xmlns="http://www.w3.org/2000/svg" xmlns:xlink="http://www.w3.org/1999/xlink" x="0px" y="0px"
	 viewBox="0 0 72 72" style="enable-background:new 0 0 72 72;" xml:space="preserve">
<style type="text/css">
	.st0{fill:#FE443F;}
	.st1{fill:#CC2725;}
	.st2{fill:#FE8E3F;}
	.st3{fill:#DB6A1A;}
	.st4{fill:#F6BC72;}
	.st5{fill:#DE9853;}
	.st6{fill:#D6EFFB;}
	.st7{fill:#ECEBED;}
	.st8{fill:#DFDFE0;}
	.st9{fill:#E5EAED;}
	.st10{fill:none;}
</style>
<g>
	<path class="st10" d="M54.67,40.96l-4.41-3.44l-4.46,3.49l4.46,2.88L54.67,40.96z"/>
	<path class="st5" d="M70.76,30.24v22.13c0,0.32-0.12,0.64-0.35,0.87L54.62,40.91l1.5-0.99L70.76,30.24z"/>
	<path class="st5" d="M45.81,41L30.14,53.24c-0.22-0.23-0.35-0.55-0.35-0.87v-21.7l14.39,9.29L45.81,41z"/>
	<path class="st5" d="M70.41,53.24c-0.24,0.24-0.56,0.37-0.89,0.37H31.03c-0.34,0-0.66-0.13-0.89-0.37L45.81,41l4.47,2.89l4.34-2.98
		L70.41,53.24z"/>
	<path class="st0" d="M36.27,56.19l-4.57,4.22c-2.95,1.02-8.69-1.71-13.74-6.77s-7.78-10.79-6.79-13.74l4.22-4.57
		c0.47-0.48,0.47-1.24,0-1.73l-6.12-6.11c-0.48-0.49-1.27-0.5-1.76-0.02C7.51,27.49,7.5,27.5,7.5,27.51l-4.27,4.42
		c-4.59,6.14-0.96,18.22,8.69,27.82s21.6,13.23,27.81,8.64l4.41-4.27c0.49-0.48,0.5-1.27,0.02-1.76c-0.01-0.01-0.01-0.01-0.02-0.02
		l-6.11-6.11C37.55,55.74,36.77,55.72,36.27,56.19z"/>
	<path class="st5" d="M70.76,30.24v-2.69c0-0.69-0.56-1.24-1.24-1.24H31.03c-0.69,0-1.24,0.56-1.24,1.24v3.13l20.48,13.22
		L70.76,30.24z"/>
	<path class="st4" d="M48.65,29.03c6.3-6.3,6.3-16.52,0-22.82s-16.52-6.3-22.82,0c-4.95,4.95-6.15,12.54-2.95,18.78l-1.3,7.57
		c-0.05,0.35,0.19,0.67,0.53,0.72c0.06,0.01,0.13,0.01,0.19,0l7.57-1.3C36.1,35.18,43.69,33.99,48.65,29.03z"/>
	<path d="M70.76,25.08H52.93c3.04-6.65,1.69-14.49-3.4-19.74c-6.08-6.33-17.85-6.96-24.58,0c-5.24,5.23-6.59,13.2-3.36,19.86
		l-1.38,8.03c-0.06,0.47-0.06,1.65,1.44,1.44l6.9-1.22v20.17c0,0.69,0.56,1.24,1.24,1.24h6.13l-4.31,4.32
		c-2.31,0.86-7.45-1.24-12.77-6.41c-4.74-4.73-7.34-10.42-6.41-12.77l4.67-4.66c0.49-0.48,0.49-1.27,0.01-1.76c0,0,0,0-0.01-0.01
		l-7.85-7.85c-0.48-0.49-1.27-0.49-1.76-0.01c0,0,0,0-0.01,0.01c-0.73,0.96-4.88,4.87-5.52,5.81c-4.66,6.86-0.84,19.28,9.01,29.09
		c7.04,7.03,15.36,10.99,22.03,10.99c2.47,0.07,4.91-0.6,6.99-1.94c0.51-0.31,5.52-5.25,5.87-5.56c0.49-0.48,0.49-1.27,0.01-1.76
		c0,0,0,0-0.01-0.01l-7.45-7.45h32.33c0.69,0,1.24-0.56,1.24-1.24V26.38c0.03-0.69-0.51-1.26-1.19-1.29
		C70.79,25.09,70.77,25.08,70.76,25.08z M38.95,67.42c-5.67,4.25-17.19,0.5-26.21-8.53S0,38.43,4.22,32.68
		c0.4-0.53,3.72-3.72,4.16-4.3l6.1,6.1l-4.36,4.36c-1.43,4.08,1.54,10.07,6.98,15.73c5.25,5.04,11.25,8.44,15.7,6.95l4.36-4.36
		l6.1,6.1L38.95,67.42z M69.52,27.57v1.82L50.26,42.23l-11.28-7.29c5.03-0.56,9.59-3.24,12.51-7.37L69.52,27.57z M23.98,24.44
		c-2.98-5.77-1.88-12.8,2.72-17.38c5.16-5.36,15.23-6.02,21.1,0c5.36,5.15,6.02,15.23,0,21.1c-4.58,4.59-11.61,5.69-17.38,2.72
		c-0.24-0.11-0.51-0.15-0.78-0.12l-6.7,1.15l1.15-6.7C24.13,24.95,24.1,24.68,23.98,24.44z M31.03,52.39V33.85
		c0.97,0.38,1.97,0.67,2.99,0.86l15.63,10.04c0.22,0,0.26,0.43,1.35,0l18.62-12.41v20.06L31.03,52.39z"/>
	<path d="M31.03,15.15h12.41c0.69,0,1.24-0.56,1.24-1.24s-0.56-1.24-1.24-1.24H31.03c-0.69,0-1.24,0.56-1.24,1.24
		S30.35,15.15,31.03,15.15z"/>
	<path d="M28.55,21.36h17.38c0.69,0,1.24-0.56,1.24-1.24c0-0.69-0.56-1.24-1.24-1.24H28.55c-0.69,0-1.24,0.56-1.24,1.24
		C27.31,20.8,27.87,21.36,28.55,21.36z"/>
</g>
</svg>
