<?xml version="1.0" encoding="utf-8"?>
<!-- Generator: Adobe Illustrator 25.2.1, SVG Export Plug-In . SVG Version: 6.00 Build 0)  -->
<svg version="1.1" id="Layer_1" xmlns="http://www.w3.org/2000/svg" xmlns:xlink="http://www.w3.org/1999/xlink" x="0px" y="0px"
	 viewBox="0 0 72 72" style="enable-background:new 0 0 72 72;" xml:space="preserve">
<style type="text/css">
	.st0{fill:#FE443F;}
	.st1{fill:#CC2725;}
	.st2{fill:#FE8E3F;}
	.st3{fill:#DB6A1A;}
	.st4{fill:#F6BC72;}
	.st5{fill:#DE9853;}
	.st6{fill:#D6EFFB;}
	.st7{fill:#ECEBED;}
	.st8{fill:#DFDFE0;}
	.st9{fill:#E5EAED;}
	.st10{fill:none;}
</style>
<g>
	<path class="st0" d="M9.04,63.2v-7.84V15.02c0-3.69,2.99-6.68,6.68-6.68h47.21c-0.24-3.47-3.13-6.22-6.66-6.22H12.15
		c-5.93,0-10.75,4.81-10.75,10.75v44.12c0,3.69,2.99,6.68,6.68,6.68h0.97C9.05,63.51,9.04,63.36,9.04,63.2L9.04,63.2z"/>
	<g>
		<path class="st9" d="M69.34,67.09c-0.21,0.3-0.45,0.58-0.71,0.84C68.9,67.67,69.13,67.39,69.34,67.09z"/>
		<path class="st9" d="M14.71,69.81c-0.22-0.03-0.44-0.08-0.65-0.13C14.27,69.73,14.49,69.77,14.71,69.81z"/>
		<path class="st9" d="M70.59,63.2L70.59,63.2c0,0.73-0.12,1.43-0.34,2.09C70.47,64.64,70.59,63.93,70.59,63.2z"/>
		<path class="st9" d="M14.06,69.67c-0.32-0.08-0.63-0.19-0.93-0.31C13.42,69.49,13.74,69.59,14.06,69.67z"/>
		<path class="st9" d="M11,67.93c-0.3-0.3-0.58-0.63-0.82-0.99C10.43,67.29,10.7,67.63,11,67.93z"/>
		<path class="st9" d="M13.13,69.36c-0.5-0.21-0.97-0.48-1.4-0.8C12.16,68.88,12.63,69.15,13.13,69.36z"/>
		<path class="st9" d="M67.8,68.63c-0.31,0.22-0.64,0.42-0.99,0.59C67.16,69.06,67.49,68.86,67.8,68.63z"/>
		<path class="st9" d="M15.73,69.88L15.73,69.88c-0.23,0-0.46-0.01-0.68-0.03C15.27,69.87,15.5,69.88,15.73,69.88z"/>
		<path class="st9" d="M70.12,65.68c-0.08,0.19-0.16,0.38-0.26,0.56C69.95,66.06,70.04,65.88,70.12,65.68z"/>
		<path class="st9" d="M66.43,69.39c-0.17,0.07-0.35,0.14-0.53,0.19C66.08,69.53,66.25,69.46,66.43,69.39z"/>
		<path class="st5" d="M64.19,8.34h-1.25H15.45c-3.54,0-6.41,2.87-6.41,6.41v40.62l16.33-27.69c1.6-2.71,5.55-2.65,7.06,0.12
			l11.38,20.9c1.33,2.44,4.56,3.06,6.7,1.29l6.32-5.25c1.56-1.29,3.84-1.24,5.33,0.13l8.42,7.72V14.74
			C70.59,11.2,67.73,8.34,64.19,8.34z M54.17,31.47c-4.28,0.53-7.79-3.56-6.2-7.96c0.55-1.52,1.76-2.74,3.29-3.29
			c4.39-1.59,8.49,1.92,7.96,6.2C58.88,29.08,56.82,31.14,54.17,31.47z"/>
		<path class="st9" d="M9.04,63.2L9.04,63.2c0,0.16,0.01,0.31,0.02,0.46c0.08,1.21,0.48,2.33,1.12,3.27
			C9.47,65.87,9.04,64.59,9.04,63.2z"/>
	</g>
	<path class="st4" d="M62.17,44.87c-1.49-1.37-3.77-1.43-5.33-0.13l-6.32,5.25c-2.14,1.78-5.37,1.16-6.7-1.29l-11.38-20.9
		c-1.51-2.77-5.46-2.83-7.06-0.12L9.04,55.36v7.84c0,1.38,0.42,2.67,1.14,3.74c0.24,0.36,0.51,0.69,0.82,0.99
		c0.23,0.23,0.47,0.44,0.73,0.63c0.43,0.32,0.9,0.59,1.4,0.8c0.3,0.13,0.61,0.23,0.93,0.31c0.21,0.05,0.43,0.1,0.65,0.13
		c0.11,0.02,0.22,0.03,0.33,0.04c0.22,0.02,0.45,0.03,0.68,0.03h48.19c0.12,0,0.23,0,0.34-0.01c0.34-0.02,0.68-0.06,1-0.13
		c0.22-0.04,0.43-0.1,0.64-0.16c0.18-0.06,0.36-0.12,0.53-0.19c0.13-0.05,0.26-0.11,0.38-0.17c0.35-0.17,0.68-0.37,0.99-0.59
		c0.3-0.21,0.58-0.45,0.84-0.71c0.26-0.26,0.49-0.54,0.71-0.84c0.19-0.27,0.36-0.55,0.52-0.84c0.09-0.18,0.18-0.37,0.26-0.56
		c0.05-0.13,0.1-0.26,0.14-0.39c0.22-0.66,0.34-1.36,0.34-2.09V52.59L62.17,44.87z"/>
	<circle class="st0" cx="53.42" cy="25.68" r="5.84"/>
	<path d="M53.42,32.93c4,0,7.25-3.25,7.25-7.25s-3.25-7.25-7.25-7.25s-7.25,3.25-7.25,7.25S49.42,32.93,53.42,32.93z M53.42,21.24
		c2.45,0,4.43,1.99,4.43,4.43c0,2.45-1.99,4.43-4.43,4.43c-2.45,0-4.43-1.99-4.43-4.43S50.98,21.24,53.42,21.24z"/>
	<path d="M53.47,63.45c-0.04-0.09-0.08-0.17-0.13-0.24c-0.05-0.08-0.11-0.15-0.17-0.21c-0.06-0.06-0.14-0.12-0.21-0.17
		c-0.08-0.05-0.16-0.09-0.24-0.13c-0.08-0.04-0.17-0.06-0.26-0.08c-0.18-0.04-0.37-0.04-0.55,0c-0.09,0.02-0.18,0.05-0.26,0.08
		c-0.09,0.04-0.17,0.08-0.24,0.13c-0.08,0.05-0.15,0.11-0.21,0.17c-0.06,0.06-0.12,0.14-0.17,0.21c-0.05,0.08-0.09,0.16-0.13,0.24
		c-0.04,0.08-0.06,0.17-0.08,0.26c-0.02,0.09-0.03,0.18-0.03,0.27c0,0.09,0.01,0.18,0.03,0.27c0.02,0.09,0.05,0.18,0.08,0.26
		c0.04,0.09,0.08,0.17,0.13,0.24c0.05,0.08,0.11,0.15,0.17,0.21c0.03,0.03,0.07,0.06,0.1,0.09c0.04,0.03,0.07,0.06,0.11,0.08
		c0.08,0.05,0.16,0.09,0.24,0.13c0.08,0.04,0.17,0.06,0.26,0.08c0.09,0.02,0.18,0.03,0.27,0.03s0.18-0.01,0.27-0.03
		c0.09-0.02,0.18-0.05,0.26-0.08c0.09-0.04,0.17-0.08,0.24-0.13c0.04-0.03,0.08-0.05,0.11-0.08c0.04-0.03,0.07-0.06,0.1-0.09
		c0.06-0.06,0.12-0.14,0.17-0.21c0.05-0.08,0.09-0.16,0.13-0.24c0.04-0.08,0.06-0.17,0.08-0.26c0.02-0.09,0.03-0.18,0.03-0.27
		c0-0.09-0.01-0.18-0.03-0.27C53.53,63.62,53.51,63.53,53.47,63.45z"/>
	<path d="M28.74,8.87c0.04,0.08,0.08,0.17,0.13,0.24c0.05,0.08,0.11,0.15,0.18,0.21c0.06,0.06,0.14,0.12,0.21,0.17
		c0.08,0.05,0.16,0.09,0.24,0.13c0.09,0.04,0.17,0.06,0.26,0.08s0.18,0.03,0.27,0.03s0.18-0.01,0.27-0.03
		c0.09-0.02,0.18-0.05,0.26-0.08c0.09-0.04,0.17-0.08,0.24-0.13c0.08-0.05,0.15-0.11,0.21-0.17c0.06-0.06,0.12-0.14,0.17-0.21
		c0.05-0.08,0.09-0.16,0.13-0.24c0.04-0.08,0.06-0.17,0.08-0.26c0.02-0.09,0.03-0.18,0.03-0.27c0-0.09-0.01-0.18-0.03-0.28
		c-0.02-0.09-0.05-0.18-0.08-0.26s-0.08-0.17-0.13-0.24c-0.05-0.08-0.11-0.15-0.17-0.21c-0.06-0.06-0.14-0.12-0.21-0.17
		c-0.08-0.05-0.16-0.09-0.24-0.13C30.49,7,30.4,6.98,30.31,6.96c-0.18-0.04-0.37-0.04-0.55,0C29.68,6.98,29.59,7,29.5,7.04
		c-0.08,0.04-0.17,0.08-0.24,0.13c-0.08,0.05-0.15,0.11-0.21,0.17c-0.06,0.06-0.12,0.14-0.18,0.21c-0.05,0.08-0.09,0.16-0.13,0.24
		s-0.06,0.17-0.08,0.26c-0.02,0.09-0.03,0.18-0.03,0.28c0,0.09,0.01,0.18,0.03,0.27C28.68,8.7,28.71,8.79,28.74,8.87z"/>
	<path d="M64.14,6.94c-0.84-3.56-4.05-6.23-7.87-6.23H12.15C5.45,0.71,0,6.16,0,12.86v44.12c0,4.38,3.5,7.96,7.86,8.08
		c0.84,3.56,4.05,6.23,7.87,6.23h48.19c4.46,0,8.09-3.63,8.09-8.09V52.59V15.02C72,10.63,68.5,7.06,64.14,6.94z M69.19,63.2
		c0,2.91-2.37,5.27-5.27,5.27H15.73c-2.25,0-4.18-1.42-4.93-3.41c-0.22-0.58-0.34-1.21-0.34-1.87v-0.95v-6.52l16.13-27.35
		c0.49-0.83,1.37-1.32,2.33-1.3c0.97,0.02,1.82,0.53,2.28,1.38l6.95,12.75l10.1,18.54c0.26,0.47,0.74,0.73,1.24,0.73
		c0.23,0,0.46-0.06,0.67-0.17c0.68-0.37,0.93-1.23,0.56-1.91l-3.28-6.02c1.44,0.07,2.85-0.4,3.98-1.33l6.32-5.25
		c1.01-0.84,2.51-0.8,3.48,0.09l0.33,0.3l2.81,2.58l4.83,4.42V63.2z M69.19,49.4l-4.83-4.42l-2.81-2.14
		c-1.83-0.77-4.01-0.5-5.61,0.83l-6.32,5.25c-0.7,0.58-1.6,0.81-2.49,0.64c-0.89-0.17-1.64-0.72-2.08-1.52l-4.44-8.15l-2.48-4.55v0
		l-4.47-8.21c-0.95-1.75-2.71-2.82-4.7-2.85c-1.99-0.03-3.79,0.97-4.8,2.69L10.45,50.21V15.02c0-2.91,2.37-5.27,5.27-5.27h8.69
		c0.78,0,1.41-0.63,1.41-1.41s-0.63-1.41-1.41-1.41h-8.69c-4.46,0-8.09,3.63-8.09,8.09v40.34v6.88c-2.7-0.23-4.83-2.5-4.83-5.25
		V12.86c0-5.15,4.19-9.34,9.34-9.34h44.12c2.25,0,4.18,1.42,4.93,3.41H35.67c-0.78,0-1.41,0.63-1.41,1.41s0.63,1.41,1.41,1.41h25.88
		l2.81,0.02c2.7,0.23,4.83,2.5,4.83,5.25V49.4z"/>
</g>
</svg>
