<?xml version="1.0" encoding="utf-8"?>
<!-- Generator: Adobe Illustrator 25.2.1, SVG Export Plug-In . SVG Version: 6.00 Build 0)  -->
<svg version="1.1" id="Layer_1" xmlns="http://www.w3.org/2000/svg" xmlns:xlink="http://www.w3.org/1999/xlink" x="0px" y="0px"
	 viewBox="0 0 72 72" style="enable-background:new 0 0 72 72;" xml:space="preserve">
<style type="text/css">
	.st0{fill:#FE443F;}
	.st1{fill:#CC2725;}
	.st2{fill:#FE8E3F;}
	.st3{fill:#DB6A1A;}
	.st4{fill:#F6BC72;}
	.st5{fill:#DE9853;}
	.st6{fill:#D6EFFB;}
	.st7{fill:#ECEBED;}
	.st8{fill:#DFDFE0;}
	.st9{fill:#E5EAED;}
	.st10{fill:none;}
</style>
<g>
	<path class="st4" d="M44.44,52.88H27.56c-0.4,0.5-13.67,17.22-14.06,17.72h45C58.1,70.09,44.83,53.37,44.44,52.88z"/>
	<path class="st5" d="M56.53,52.88H44.44c0.4,0.5,13.67,17.22,14.06,17.72h12.09C70.2,70.09,56.93,53.37,56.53,52.88z"/>
	<path class="st0" d="M36,61.73c-0.06-0.1-17.54-27.51-17.55-27.53c-2.24-3.35-3.54-7.38-3.54-11.71c0-11.65,9.44-21.09,21.09-21.09
		s21.09,9.44,21.09,21.09c0,4.33-1.31,8.36-3.54,11.71C53.54,34.22,36.06,61.64,36,61.73z M46.54,29.51
		c1.39-2.07,2.12-4.5,2.12-7.01c0-6.98-5.68-12.66-12.66-12.66S23.34,15.52,23.34,22.5c0,2.51,0.73,4.94,2.12,7.02
		c2.36,3.53,6.3,5.64,10.53,5.64S44.17,33.05,46.54,29.51z"/>
	<path class="st5" d="M15.47,52.88c-0.4,0.5-13.67,17.22-14.06,17.72H13.5c0.4-0.5,13.67-17.22,14.06-17.72H15.47z"/>
	<path d="M44.44,36.56c-0.78,0-1.41,0.63-1.41,1.41s0.63,1.41,1.41,1.41s1.41-0.63,1.41-1.41S45.21,36.56,44.44,36.56z"/>
	<path d="M14.37,52L0.3,69.72c-0.34,0.42-0.4,1-0.16,1.49C0.37,71.69,0.87,72,1.41,72h69.19c0.54,0,1.03-0.31,1.27-0.79
		c0.24-0.49,0.17-1.06-0.16-1.49L57.63,52c-0.27-0.34-0.67-0.53-1.1-0.53H44.21l10.52-16.49c2.47-3.7,3.77-8.01,3.77-12.47
		C58.5,10.09,48.41,0,36,0S13.5,10.09,13.5,22.5c0,4.46,1.3,8.77,3.77,12.47l10.52,16.49H15.47C15.04,51.47,14.63,51.66,14.37,52z
		 M9.12,63.14h8.5l-4.8,6.05h-8.5L9.12,63.14z M29.58,54.28l3.86,6.05h-9.99l4.8-6.05H29.58z M42.42,54.28h1.34l4.8,6.05h-9.99
		L42.42,54.28z M50.79,63.14l4.8,6.05H16.41l4.8-6.05H50.79z M59.18,69.19l-4.8-6.05h8.5l4.8,6.05H59.18z M60.65,60.33h-8.5
		l-4.8-6.05h8.5L60.65,60.33z M19.62,33.42c-2.16-3.24-3.31-7.02-3.31-10.92c0-10.86,8.83-19.69,19.69-19.69s19.69,8.83,19.69,19.69
		c0,3.91-1.14,7.69-3.31,10.92c-0.01,0.01-0.01,0.02-0.02,0.02C51.44,34.9,36.71,58,36,59.12c-1.79-2.81-14.54-22.81-16.37-25.67
		C19.63,33.44,19.62,33.43,19.62,33.42z M24.65,54.28l-4.8,6.05h-8.5l4.8-6.05H24.65z"/>
	<path d="M36,36.56c7.72,0,14.06-6.25,14.06-14.06c0-7.75-6.31-14.06-14.06-14.06S21.94,14.75,21.94,22.5
		C21.94,30.31,28.28,36.56,36,36.56z M36,11.25c6.2,0,11.25,5.05,11.25,11.25c0,6.26-5.09,11.25-11.25,11.25
		c-6.16,0-11.25-4.99-11.25-11.25C24.75,16.3,29.8,11.25,36,11.25z"/>
	<path d="M41.92,41.36c-0.66-0.4-1.53-0.19-1.93,0.48l-5.2,8.62c-0.4,0.67-0.19,1.53,0.48,1.93c0.67,0.4,1.53,0.18,1.93-0.48
		l5.2-8.62C42.8,42.63,42.59,41.76,41.92,41.36z"/>
</g>
</svg>
