<?xml version="1.0" encoding="utf-8"?>
<!-- Generator: Adobe Illustrator 25.2.1, SVG Export Plug-In . SVG Version: 6.00 Build 0)  -->
<svg version="1.1" id="Layer_1" xmlns="http://www.w3.org/2000/svg" xmlns:xlink="http://www.w3.org/1999/xlink" x="0px" y="0px"
	 viewBox="0 0 72 72" style="enable-background:new 0 0 72 72;" xml:space="preserve">
<style type="text/css">
	.st0{fill:#FE443F;}
	.st1{fill:#CC2725;}
	.st2{fill:#FE8E3F;}
	.st3{fill:#DB6A1A;}
	.st4{fill:#F6BC72;}
	.st5{fill:#DE9853;}
	.st6{fill:#D6EFFB;}
	.st7{fill:#ECEBED;}
	.st8{fill:#DFDFE0;}
	.st9{fill:#E5EAED;}
	.st10{fill:none;}
</style>
<g>
	<path class="st2" d="M32.81,60.58h19.47c2.47,0,4.46-2,4.46-4.46V5.51c0-2.47-2-4.46-4.46-4.46H8.88L32.81,60.58z"/>
	<path class="st5" d="M32.81,60.58h4.22V17.24c0-3.13-1.69-6.03-4.41-7.57l-15.2-8.63H8.88L32.81,60.58z"/>
	<path class="st7" d="M14.87,5.71h37.21v50.21H14.87V5.71z"/>
	<path class="st8" d="M14.87,55.92h22.16V17.24c0-3.13-1.69-6.03-4.41-7.57l-6.98-3.96H14.87V55.92z"/>
	<path class="st4" d="M30.54,13.34L8.88,1.04v59.54l17.23,9.78c2.99,1.7,6.7-0.46,6.7-3.9V17.24
		C32.81,15.63,31.94,14.14,30.54,13.34z"/>
	<path class="st5" d="M28.09,39.29c0,1.82-1.47,3.29-3.29,3.29c-1.82,0-3.29-1.47-3.29-3.29c0-1.82,1.47-3.29,3.29-3.29
		C26.61,36,28.09,37.47,28.09,39.29z"/>
	<path class="st0" d="M61.03,28.86H47.51v-2.31c0-1.13-1.33-1.73-2.18-0.99l-8.52,7.45c-0.6,0.52-0.6,1.46,0,1.98l8.52,7.45
		c0.85,0.74,2.18,0.14,2.18-0.99v-2.31h13.52c1.16,0,2.1-0.94,2.1-2.1v-6.08C63.12,29.8,62.18,28.86,61.03,28.86z"/>
	<path d="M29.14,39.3c0-2.4-1.95-4.34-4.34-4.34c-2.4,0-4.34,1.95-4.34,4.34c0,2.4,1.95,4.34,4.34,4.34
		C27.19,43.64,29.14,41.7,29.14,39.3z M22.56,39.3c0-1.23,1-2.23,2.23-2.23c1.23,0,2.23,1,2.23,2.23c0,1.23-1,2.23-2.23,2.23
		C23.57,41.53,22.56,40.53,22.56,39.3z"/>
	<path d="M41.38,2.11c0.58,0,1.06-0.47,1.06-1.05c0-0.58-0.47-1.06-1.06-1.06c0,0-32.49,0-32.51,0C8.33,0.01,7.82,0.51,7.82,1.06
		v59.54c0,0.38,0.2,0.73,0.53,0.92l5.22,2.96c0.51,0.29,1.15,0.11,1.44-0.4c0.29-0.51,0.11-1.15-0.4-1.44l-4.68-2.66V2.87
		c0,0,20.08,11.4,20.08,11.4c1.06,0.6,1.74,1.77,1.74,2.98v49.23c0,2.58-2.87,4.26-5.12,2.98l-7.8-4.43
		c-0.51-0.29-1.15-0.11-1.44,0.4c-0.29,0.51-0.11,1.15,0.4,1.44c0,0,7.79,4.42,7.8,4.43c3.64,2.06,8.27-0.66,8.27-4.82v-4.83h18.41
		c3.04,0,5.52-2.48,5.52-5.52V40.2h3.23c1.74,0,3.15-1.41,3.15-3.15v-6.08c0-1.74-1.41-3.15-3.15-3.15h-3.23V5.52
		c0-3.04-2.48-5.52-5.52-5.52H45.6c-0.58,0-1.05,0.47-1.05,1.06c0,0.58,0.47,1.05,1.05,1.05h6.67c1.88,0,3.41,1.53,3.41,3.41v22.3
		h-2.55V5.72c0-0.58-0.47-1.06-1.05-1.06H17.37l-4.5-2.55H41.38z M55.68,56.13c0,1.88-1.53,3.41-3.41,3.41H33.86v-2.55h18.21
		c0.58,0,1.05-0.47,1.05-1.06V40.2h2.55V56.13z M61.03,29.93c0.57,0,1.04,0.47,1.04,1.04v6.08c0,0.57-0.47,1.04-1.04,1.04H47.51
		c-0.58,0-1.06,0.47-1.06,1.06v2.31c-0.01,0.21-0.26,0.34-0.43,0.19L37.5,34.2c-0.11-0.1-0.11-0.29,0-0.39c0,0,8.52-7.45,8.52-7.45
		c0.09-0.08,0.2-0.08,0.3-0.03c0.08,0.04,0.13,0.13,0.13,0.22v2.31c0,0.58,0.47,1.05,1.06,1.05H61.03z M51.02,6.77v21.04h-2.46
		c0,0,0-1.26,0-1.26c0-1.98-2.43-3.09-3.93-1.78c0,0-8.52,7.45-8.52,7.45c-1.06,0.93-1.06,2.64,0,3.57c0,0,8.52,7.45,8.53,7.46
		c1.5,1.31,3.92,0.19,3.92-1.79V40.2h2.46v14.67H33.86c0,0,0-37.62,0-37.62c0-1.94-1.09-3.84-2.8-4.82l-9.97-5.66H51.02z"/>
</g>
</svg>
