<?xml version="1.0" encoding="utf-8"?>
<!-- Generator: Adobe Illustrator 25.2.1, SVG Export Plug-In . SVG Version: 6.00 Build 0)  -->
<svg version="1.1" id="Layer_1" xmlns="http://www.w3.org/2000/svg" xmlns:xlink="http://www.w3.org/1999/xlink" x="0px" y="0px"
	 viewBox="0 0 72 72" style="enable-background:new 0 0 72 72;" xml:space="preserve">
<style type="text/css">
	.st0{fill:#FE443F;}
	.st1{fill:#CC2725;}
	.st2{fill:#FE8E3F;}
	.st3{fill:#DB6A1A;}
	.st4{fill:#F6BC72;}
	.st5{fill:#DE9853;}
	.st6{fill:#D6EFFB;}
	.st7{fill:#ECEBED;}
	.st8{fill:#DFDFE0;}
	.st9{fill:#E5EAED;}
	.st10{fill:none;}
</style>
<g>
	<g>
		<g>
			<path class="st0" d="M31.16,15.03l-2.73,2.66c-0.84,0.82-1.22,2-1.03,3.15l0.64,3.76c0.5,2.91-2.56,5.13-5.17,3.76l-3.37-1.77
				c-1.04-0.55-2.28-0.55-3.32,0l-3.37,1.77c-2.62,1.37-5.67-0.85-5.17-3.76l0.64-3.76c0.2-1.16-0.19-2.34-1.03-3.15l-2.73-2.66
				c-2.11-2.06-0.95-5.65,1.98-6.08l3.77-0.55c1.16-0.17,2.16-0.9,2.68-1.95l1.69-3.42c0.65-1.32,1.92-1.99,3.2-1.99
				s2.54,0.66,3.2,1.99l1.69,3.42c0.52,1.05,1.52,1.78,2.68,1.95l3.77,0.55C32.11,9.38,33.27,12.97,31.16,15.03L31.16,15.03z"/>
			<path class="st1" d="M9.2,15.5c1.12,2.84,2.77,4.73,1.61,7.41c-1.16,2.68-0.57,6.2,5.38,3.68l-3.37,1.77
				c-2.62,1.37-5.67-0.85-5.17-3.76l0.64-3.76c0.2-1.16-0.19-2.34-1.03-3.15l-2.73-2.66c-2.11-2.06-0.95-5.65,1.98-6.08l3.77-0.55
				c1.16-0.17,2.16-0.9,2.68-1.95l1.69-3.42c0.65-1.32,1.92-1.99,3.2-1.99c-2.51,0-1.47,7.23-5.06,9.13
				C9.2,12.08,8.08,12.66,9.2,15.5z"/>
		</g>
		<g>
			<path class="st2" d="M51,14.98l-1.52,1.48c-0.47,0.46-0.68,1.11-0.57,1.75l0.36,2.09c0.28,1.62-1.42,2.85-2.88,2.09l-1.88-0.99
				c-0.58-0.3-1.27-0.3-1.84,0l-1.88,0.99c-1.45,0.76-3.15-0.47-2.88-2.09l0.36-2.09c0.11-0.64-0.1-1.3-0.57-1.75l-1.52-1.48
				c-1.18-1.15-0.53-3.14,1.1-3.38l2.1-0.3c0.65-0.09,1.2-0.5,1.49-1.08l0.94-1.9c0.36-0.74,1.07-1.1,1.78-1.1
				c0.71,0,1.41,0.37,1.78,1.1l0.94,1.9c0.29,0.58,0.85,0.99,1.49,1.08l2.1,0.3C51.53,11.84,52.17,13.84,51,14.98L51,14.98z"/>
			<path class="st3" d="M38.79,15.24c0.62,1.58,1.54,2.63,0.89,4.12c-0.65,1.49-0.32,3.45,2.99,2.05l-1.88,0.99
				c-1.45,0.76-3.15-0.47-2.88-2.09l0.36-2.09c0.11-0.64-0.1-1.3-0.57-1.75l-1.52-1.48c-1.18-1.15-0.53-3.14,1.1-3.38l2.1-0.3
				c0.65-0.09,1.2-0.5,1.49-1.08l0.94-1.9c0.36-0.74,1.07-1.1,1.78-1.1c-1.39,0-0.81,4.02-2.81,5.08
				C38.79,13.34,38.17,13.66,38.79,15.24L38.79,15.24z"/>
		</g>
		<g>
			<path class="st2" d="M70.17,14.98l-1.52,1.48c-0.47,0.46-0.68,1.11-0.57,1.75l0.36,2.09c0.28,1.62-1.42,2.85-2.88,2.09
				l-1.88-0.99c-0.58-0.3-1.27-0.3-1.84,0l-1.88,0.99c-1.45,0.76-3.15-0.47-2.88-2.09l0.36-2.09c0.11-0.64-0.1-1.3-0.57-1.75
				l-1.52-1.48c-1.18-1.15-0.53-3.14,1.1-3.38l2.1-0.3c0.65-0.09,1.2-0.5,1.49-1.08l0.94-1.9c0.36-0.74,1.07-1.1,1.78-1.1
				c0.71,0,1.41,0.37,1.78,1.1l0.94,1.9c0.29,0.58,0.85,0.99,1.49,1.08l2.1,0.3C70.7,11.84,71.34,13.84,70.17,14.98L70.17,14.98z"/>
			<path class="st3" d="M57.96,15.24c0.62,1.58,1.54,2.63,0.89,4.12c-0.65,1.49-0.32,3.45,2.99,2.05l-1.88,0.99
				c-1.45,0.76-3.15-0.47-2.88-2.09l0.36-2.09c0.11-0.64-0.1-1.3-0.57-1.75l-1.52-1.48c-1.18-1.15-0.53-3.14,1.1-3.38l2.1-0.3
				c0.65-0.09,1.2-0.5,1.49-1.08l0.94-1.9c0.36-0.74,1.07-1.1,1.78-1.1c-1.39,0-0.81,4.02-2.81,5.08
				C57.96,13.34,57.34,13.66,57.96,15.24L57.96,15.24z"/>
		</g>
		<g>
			<path class="st4" d="M5.03,61.52c0.64,1.66,1.48,3.31,2.61,4.76l0,0c2.1,2.69,5.16,4.67,9.65,4.67h12.69
				c10.4,0,16.28-10.65,16.28-19.81v-9.67c0-1.18-0.48-2.24-1.25-3.01c-0.77-0.77-1.84-1.25-3.01-1.25c-2.35,0-4.26,1.91-4.26,4.26
				v-4.54c0-1.18-0.48-2.24-1.25-3.01c-0.77-0.77-1.84-1.25-3.01-1.25c-1.18,0-2.24,0.48-3.01,1.25c-0.77,0.77-1.25,1.84-1.25,3.01
				v-0.43c0-1.18-0.48-2.24-1.25-3.01c-0.77-0.77-1.84-1.25-3.01-1.25c-2.35,0-4.26,1.91-4.26,4.26V20.87
				c0-2.35-1.91-4.26-4.26-4.26c-1.18,0-2.24,0.48-3.01,1.25c-0.77,0.77-1.25,1.84-1.25,3.01v22.86c0,0-0.2-1.45-1.82-4.38
				c-1.3-2.35-4.26-3.2-6.61-1.89c-2.35,1.3-3.2,4.26-1.89,6.61c1.25,2.25,1.25,7.29,1.25,7.35c0,0,0.03,5.15,1.96,10.16L5.03,61.52
				z"/>
			<g>
				<path class="st5" d="M33.81,68.91c1.65,0,3.18-0.27,4.6-0.75c-2.34,1.73-5.16,2.79-8.44,2.79c0,0-7.42,0-12.69,0
					c-2.24,0-4.13-0.49-5.72-1.32s-2.88-2-3.93-3.34c-1.13-1.44-1.97-3.09-2.61-4.76c-1.91-4.99-1.93-10.1-1.93-10.1
					c0-0.06,0-5.1-1.25-7.35c-1.3-2.35-0.45-5.31,1.89-6.61c0.71-0.4,1.48-0.59,2.24-0.61c-1.06,1.48-1.24,3.49-0.3,5.19
					c1.25,2.25,1.25,7.29,1.25,7.35c0,0,0.03,5.11,1.94,10.1c0.64,1.66,1.48,3.31,2.61,4.76c1.05,1.35,2.34,2.51,3.93,3.34
					c1.59,0.83,3.47,1.32,5.72,1.32C26.39,68.91,33.81,68.91,33.81,68.91z"/>
				<path class="st5" d="M30.63,44.08c0.78,0,1.42-0.63,1.42-1.42v-5.74c0-1.18,0.48-2.24,1.25-3.01c0.45-0.45,0.99-0.79,1.6-1.01
					c-0.44-0.16-0.92-0.24-1.42-0.24c-1.18,0-2.24,0.48-3.01,1.25c-0.77,0.77-1.25,1.84-1.25,3.01v5.74
					C29.21,43.44,29.85,44.08,30.63,44.08L30.63,44.08z"/>
				<path class="st5" d="M39.15,42.88c0.78,0,1.42-0.63,1.42-1.42v0c0-1.18,0.48-2.24,1.25-3.01c0.45-0.45,0.99-0.79,1.6-1.01
					c-0.44-0.16-0.92-0.24-1.42-0.24c-1.18,0-2.24,0.48-3.01,1.25c-0.77,0.77-1.25,1.84-1.25,3.01v0
					C37.74,42.25,38.37,42.88,39.15,42.88z"/>
				<path class="st5" d="M13.59,52.11c0.78,0,1.42-0.63,1.42-1.42V20.88c0-1.18,0.48-2.24,1.25-3.01c0.45-0.45,0.99-0.79,1.6-1.01
					c-0.44-0.16-0.92-0.24-1.42-0.24c-1.18,0-2.24,0.48-3.01,1.25c-0.77,0.77-1.25,1.84-1.25,3.01v29.81
					C12.17,51.47,12.81,52.11,13.59,52.11z"/>
				<path class="st5" d="M22.11,43.65c0.78,0,1.42-0.63,1.42-1.42v-5.74c0-1.18,0.48-2.24,1.25-3.01c0.45-0.45,0.99-0.79,1.6-1.01
					c-0.44-0.16-0.92-0.24-1.42-0.24c-1.18,0-2.24,0.48-3.01,1.25c-0.77,0.77-1.25,1.84-1.25,3.01v5.74
					C20.69,43.01,21.33,43.65,22.11,43.65L22.11,43.65z"/>
			</g>
		</g>
	</g>
	<g>
		<path d="M50.05,10.56l-2.1-0.3c-0.3-0.04-0.56-0.23-0.7-0.51l-0.94-1.9C45.8,6.8,44.76,6.15,43.6,6.15
			c-1.16,0-2.21,0.65-2.72,1.69l-0.94,1.9c-0.14,0.27-0.4,0.46-0.7,0.51l-2.1,0.3c-1.15,0.17-2.09,0.96-2.45,2.07
			c-0.36,1.11-0.07,2.3,0.77,3.11l1.52,1.48c0.22,0.21,0.32,0.52,0.27,0.82l-0.36,2.09c-0.2,1.15,0.27,2.29,1.21,2.97
			c0.53,0.39,1.15,0.58,1.78,0.58c0.48,0,0.97-0.12,1.42-0.35l1.88-0.99c0.27-0.14,0.59-0.14,0.86,0l1.88,0.99
			c1.03,0.54,2.26,0.45,3.2-0.23c0.94-0.68,1.4-1.82,1.21-2.97l-0.36-2.09c-0.05-0.3,0.05-0.61,0.27-0.82l1.52-1.48
			c0.83-0.81,1.13-2.01,0.77-3.11C52.14,11.52,51.2,10.73,50.05,10.56L50.05,10.56z M50.26,14.23l-1.52,1.48
			c-0.72,0.7-1.04,1.7-0.87,2.69l0.36,2.09c0.09,0.51-0.23,0.8-0.37,0.91c-0.14,0.1-0.52,0.31-0.98,0.07l-1.88-0.99
			c-0.44-0.23-0.93-0.35-1.41-0.35c-0.49,0-0.97,0.12-1.41,0.35l-1.88,0.99c-0.46,0.24-0.84,0.03-0.98-0.07
			c-0.14-0.1-0.46-0.39-0.37-0.91l0.36-2.09c0.17-0.99-0.16-1.99-0.87-2.69l-1.52-1.48c-0.37-0.36-0.29-0.79-0.23-0.95
			c0.05-0.16,0.23-0.56,0.75-0.63l2.1-0.3c0.99-0.14,1.84-0.76,2.29-1.66l0.94-1.9c0.23-0.47,0.66-0.52,0.83-0.52
			c0.17,0,0.6,0.05,0.83,0.52l0.94,1.9c0.44,0.9,1.3,1.52,2.29,1.66l2.1,0.3c0.51,0.07,0.69,0.47,0.75,0.63
			C50.55,13.44,50.63,13.86,50.26,14.23L50.26,14.23z"/>
		<path d="M70.9,15.74c0.83-0.81,1.13-2.01,0.77-3.11c-0.36-1.11-1.3-1.9-2.45-2.07l-2.1-0.3c-0.3-0.04-0.56-0.23-0.7-0.51
			l-0.94-1.9c-0.52-1.04-1.56-1.69-2.72-1.69c-1.16,0-2.21,0.65-2.72,1.69l-0.94,1.9c-0.14,0.27-0.4,0.46-0.7,0.51l-2.1,0.3
			c-1.15,0.17-2.09,0.96-2.45,2.07c-0.36,1.11-0.07,2.3,0.77,3.11l1.52,1.48c0.22,0.21,0.32,0.52,0.27,0.82l-0.36,2.09
			c-0.2,1.15,0.27,2.29,1.21,2.97c0.53,0.39,1.15,0.58,1.78,0.58c0.48,0,0.97-0.12,1.42-0.35l1.88-0.99c0.27-0.14,0.59-0.14,0.86,0
			l1.88,0.99c1.03,0.54,2.26,0.45,3.2-0.23c0.94-0.68,1.4-1.82,1.21-2.97l-0.36-2.09c-0.05-0.3,0.05-0.61,0.27-0.82L70.9,15.74z
			 M67.92,15.71c-0.72,0.7-1.04,1.7-0.87,2.69l0.36,2.09c0.09,0.51-0.23,0.8-0.37,0.91c-0.14,0.1-0.52,0.31-0.98,0.07l-1.88-0.99
			c-0.44-0.23-0.93-0.35-1.41-0.35c-0.49,0-0.97,0.12-1.41,0.35l-1.88,0.99c-0.46,0.24-0.84,0.03-0.98-0.07
			c-0.14-0.1-0.46-0.39-0.37-0.91l0.36-2.09c0.17-0.99-0.16-1.99-0.87-2.69l-1.52-1.48c-0.37-0.36-0.29-0.79-0.23-0.95
			c0.05-0.16,0.23-0.56,0.75-0.63l2.1-0.3c0.99-0.14,1.84-0.76,2.29-1.66l0.94-1.9c0.23-0.47,0.66-0.52,0.83-0.52
			c0.17,0,0.6,0.05,0.83,0.52l0.94,1.9c0.44,0.9,1.3,1.52,2.29,1.66l2.1,0.3c0.51,0.07,0.69,0.47,0.75,0.63
			c0.05,0.16,0.14,0.59-0.23,0.95L67.92,15.71z"/>
		<path d="M42,36.15c-1.2,0-2.31,0.4-3.21,1.08v-0.31c0-1.42-0.55-2.75-1.56-3.76c-1.01-1-2.34-1.56-3.76-1.56s-2.75,0.55-3.76,1.56
			c-0.12,0.12-0.23,0.24-0.34,0.37c-0.19-0.29-0.41-0.56-0.66-0.81c-1-1-2.34-1.56-3.76-1.56c-1.2,0-2.31,0.4-3.2,1.08v-3.3
			l0.64,0.34c0.68,0.36,1.42,0.54,2.16,0.54c0.95,0,1.9-0.3,2.71-0.89c1.43-1.04,2.14-2.77,1.84-4.52l-0.64-3.76
			c-0.14-0.81,0.13-1.64,0.72-2.22l2.73-2.66c1.27-1.24,1.71-3.05,1.17-4.74c-0.55-1.68-1.98-2.89-3.73-3.14l-1.68-0.24
			c-0.58-0.08-1.11,0.32-1.2,0.89c-0.08,0.58,0.32,1.11,0.89,1.2L29.03,10c0.97,0.14,1.72,0.78,2.02,1.71
			c0.3,0.93,0.07,1.89-0.63,2.57l-2.73,2.66c-1.09,1.06-1.59,2.59-1.33,4.09l0.64,3.76c0.17,0.96-0.21,1.88-1,2.45
			c-0.79,0.57-1.78,0.64-2.64,0.19l-1.62-0.85v-5.7c0-2.93-2.39-5.31-5.32-5.31c-1.42,0-2.75,0.55-3.76,1.56
			c-1,1.01-1.56,2.34-1.56,3.76v6.85c-0.59-0.01-1.16-0.23-1.63-0.64c-0.66-0.58-0.96-1.42-0.81-2.3l0.64-3.76
			C9.59,19.53,9.09,18,8,16.94l-2.73-2.66c-0.7-0.68-0.94-1.64-0.64-2.57c0.3-0.93,1.06-1.57,2.02-1.71l3.77-0.55
			c1.51-0.22,2.81-1.16,3.48-2.53l1.69-3.42c0.43-0.88,1.27-1.4,2.25-1.4c0.98,0,1.82,0.52,2.25,1.4l1.69,3.42
			c0.25,0.51,0.59,0.97,1.01,1.35c0.43,0.39,1.1,0.37,1.49-0.06c0.39-0.43,0.37-1.1-0.06-1.49C24,6.52,23.81,6.27,23.68,5.99
			l-1.69-3.42C21.21,0.99,19.62,0,17.85,0c-1.77,0-3.36,0.99-4.14,2.57l-1.69,3.42c-0.37,0.74-1.07,1.25-1.89,1.37L6.36,7.91
			c-1.75,0.25-3.18,1.46-3.73,3.14c-0.55,1.68-0.1,3.5,1.17,4.74l2.73,2.66c0.59,0.58,0.86,1.41,0.72,2.22l-0.64,3.76
			c-0.27,1.59,0.28,3.17,1.49,4.24c0.86,0.76,1.93,1.16,3.02,1.17v8.75c-0.78-1.25-1.97-2.15-3.39-2.56
			c-1.52-0.44-3.12-0.25-4.5,0.51c-2.85,1.58-3.89,5.19-2.3,8.05c0.92,1.66,1.12,5.5,1.12,6.84c0,0.22,0.05,5.36,2,10.46l0.02,0.06
			c0,0.01,0.01,0.02,0.01,0.02c0.74,1.9,1.65,3.57,2.73,4.95c1.22,1.56,2.66,2.78,4.27,3.63C12.91,71.51,15,72,17.28,72h12.69
			c4.14,0,7.93-1.6,10.96-4.64c0.41-0.41,0.41-1.08,0-1.49c-0.41-0.41-1.08-0.41-1.49,0c-2.63,2.63-5.9,4.02-9.47,4.02H17.28
			c-1.94,0-3.7-0.4-5.23-1.2c-1.35-0.71-2.55-1.73-3.59-3.06c-0.96-1.24-1.79-2.74-2.46-4.48l0,0c-1.81-4.74-1.87-9.68-1.87-9.72
			c0-0.55-0.04-5.43-1.39-7.86c-1.02-1.84-0.35-4.16,1.48-5.18c0.89-0.49,1.92-0.61,2.9-0.33c0.98,0.28,1.79,0.92,2.28,1.81
			c1.32,2.37,1.64,3.7,1.69,3.96v7.58c0,0.58,0.47,1.05,1.05,1.05s1.05-0.47,1.05-1.05l0-30.53c0-0.86,0.33-1.66,0.94-2.27
			c0.61-0.61,1.41-0.94,2.27-0.94c1.77,0,3.2,1.44,3.21,3.2v22.26c0,0.58,0.47,1.05,1.05,1.05c0.58,0,1.05-0.47,1.05-1.05v-6.64
			c0-1.77,1.44-3.21,3.2-3.21c0.86,0,1.66,0.33,2.27,0.94c0.61,0.61,0.94,1.41,0.94,2.27l0,5.26c0,0.58,0.47,1.05,1.05,1.05
			c0.58,0,1.05-0.47,1.05-1.05v-4.82c0,0,0,0,0,0c0-0.86,0.33-1.66,0.94-2.27c0.61-0.61,1.41-0.94,2.27-0.94
			c0.86,0,1.66,0.33,2.27,0.94c0.61,0.61,0.94,1.41,0.94,2.27l0,4.54c0,0.25,0.09,0.49,0.24,0.67c0.19,0.23,0.49,0.38,0.81,0.38
			c0.58,0,1.05-0.47,1.05-1.05c0-1.77,1.44-3.21,3.21-3.21c0.86,0,1.66,0.33,2.26,0.94c0.61,0.61,0.94,1.41,0.94,2.27v9.67
			c0,4.03-1.2,8.26-3.29,11.61c-0.31,0.49-0.16,1.14,0.34,1.45c0.17,0.11,0.37,0.16,0.56,0.16c0.35,0,0.7-0.18,0.9-0.5
			c2.29-3.68,3.61-8.32,3.61-12.73v-9.67c0-1.42-0.55-2.75-1.56-3.76C44.75,36.7,43.42,36.15,42,36.15L42,36.15z"/>
	</g>
</g>
</svg>
