<?xml version="1.0" encoding="utf-8"?>
<!-- Generator: Adobe Illustrator 25.2.1, SVG Export Plug-In . SVG Version: 6.00 Build 0)  -->
<svg version="1.1" id="Layer_1" xmlns="http://www.w3.org/2000/svg" xmlns:xlink="http://www.w3.org/1999/xlink" x="0px" y="0px"
	 viewBox="0 0 72 72" style="enable-background:new 0 0 72 72;" xml:space="preserve">
<style type="text/css">
	.st0{fill:#FE443F;}
	.st1{fill:#CC2725;}
	.st2{fill:#FE8E3F;}
	.st3{fill:#DB6A1A;}
	.st4{fill:#F6BC72;}
	.st5{fill:#DE9853;}
	.st6{fill:#D6EFFB;}
	.st7{fill:#ECEBED;}
	.st8{fill:#DFDFE0;}
	.st9{fill:#E5EAED;}
	.st10{fill:none;}
</style>
<g>
	<path class="st0" d="M47.73,15.51c-3.46-1.98-7.46-3.12-11.73-3.12c-4.21,0-8.16,1.1-11.58,3.03C11.01,21.47,1.41,35.66,1.41,36
		c0,0.23,9.37,14.3,22.52,20.5l0.29,0c3.47,2,7.49,3.14,11.78,3.14c4.23,0,8.19-1.11,11.63-3.06l0.29,0
		C61.15,50.45,70.59,36.34,70.59,36C70.59,35.77,61.06,21.63,47.73,15.51z"/>
	<circle class="st4" cx="36" cy="36.02" r="23.62"/>
	<circle class="st0" cx="36" cy="36.02" r="9.86"/>
	<path d="M27.85,27.85c-2.96,2.96-4.08,7.3-2.93,11.33c0.21,0.75,0.99,1.18,1.74,0.97c0.75-0.21,1.18-0.99,0.97-1.74
		c-0.87-3.05-0.02-6.33,2.22-8.57c3.4-3.4,8.93-3.4,12.33,0c3.4,3.4,3.4,8.93,0,12.33c-2.3,2.3-5.67,3.13-8.78,2.16
		c-0.74-0.23-1.53,0.18-1.76,0.92c-0.23,0.74,0.18,1.53,0.92,1.76c1.14,0.36,2.31,0.53,3.46,0.53c3.01,0,5.94-1.18,8.14-3.38
		c4.5-4.5,4.5-11.81,0-16.31C39.66,23.35,32.34,23.35,27.85,27.85z"/>
	<path d="M27.84,42.18c-0.55,0.55-0.54,1.44,0.01,1.99c0.27,0.27,0.63,0.41,0.99,0.41c0.36,0,0.72-0.14,1-0.42l0.01-0.01
		c0.55-0.55,0.54-1.44-0.01-1.99C29.28,41.62,28.38,41.62,27.84,42.18z"/>
	<path d="M36,7.15c0.78,0,1.41-0.63,1.41-1.41V1.41C37.4,0.63,36.78,0,36,0s-1.41,0.63-1.41,1.41v4.33
		C34.59,6.52,35.22,7.15,36,7.15z"/>
	<path d="M41.37,9.35c0.36,0,0.72-0.14,0.99-0.41l3.05-3.05c0.55-0.55,0.55-1.44,0-1.99c-0.55-0.55-1.44-0.55-1.99,0l-3.05,3.05
		c-0.55,0.55-0.55,1.44,0,1.99C40.65,9.21,41.01,9.35,41.37,9.35z"/>
	<path d="M29.63,8.93c0.27,0.27,0.63,0.41,0.99,0.41c0.36,0,0.72-0.14,0.99-0.41c0.55-0.55,0.55-1.44,0-1.99L28.57,3.9
		c-0.55-0.55-1.44-0.55-1.99,0c-0.55,0.55-0.55,1.44,0,1.99L29.63,8.93z"/>
	<path d="M36,64.85c-0.78,0-1.41,0.63-1.41,1.41v4.33C34.6,71.37,35.22,72,36,72s1.41-0.63,1.41-1.41v-4.33
		C37.41,65.48,36.78,64.85,36,64.85z"/>
	<path d="M29.63,63.07l-3.05,3.05c-0.55,0.55-0.55,1.44,0,1.99c0.27,0.27,0.63,0.41,0.99,0.41c0.36,0,0.72-0.14,0.99-0.41l3.05-3.05
		c0.55-0.55,0.55-1.44,0-1.99C31.07,62.52,30.18,62.52,29.63,63.07z"/>
	<path d="M42.37,63.07c-0.55-0.55-1.44-0.55-1.99,0c-0.55,0.55-0.55,1.44,0,1.99l3.05,3.05c0.27,0.27,0.63,0.41,0.99,0.41
		s0.72-0.14,0.99-0.41c0.55-0.55,0.55-1.44,0-1.99L42.37,63.07z"/>
	<path d="M70.02,32.71c-1-1.32-2.65-3.38-4.83-5.71c-3.76-4.02-9.74-9.5-16.88-12.78c-0.01,0-0.02-0.01-0.03-0.01
		c-3.63-2.05-7.82-3.23-12.28-3.23c-4.4,0-8.53,1.14-12.12,3.14c0,0-0.01,0-0.01,0c-7.2,3.24-13.22,8.72-17,12.75
		C4.65,29.25,2.99,31.32,2,32.64C0,35.29,0,35.62,0,36c0,0.4,0,0.67,1.99,3.27c1,1.31,2.64,3.35,4.81,5.67
		c3.74,3.99,9.68,9.45,16.71,12.77c0.01,0,0.02,0.01,0.03,0.01c3.67,2.12,7.93,3.33,12.46,3.33c4.42,0,8.58-1.15,12.19-3.17
		c0.01,0,0.02-0.01,0.03-0.01c7.1-3.29,13.09-8.77,16.88-12.78c2.22-2.36,3.89-4.42,4.89-5.73C72,36.71,72,36.4,72,36
		C72,35.61,72,35.33,70.02,32.71z M9.25,43.44c-3.2-3.36-5.34-6.24-6.19-7.46c0.87-1.29,3.12-4.31,6.29-7.63
		c1.33-1.39,2.96-2.98,4.82-4.57c-2.04,3.62-3.2,7.79-3.2,12.24c0,4.34,1.11,8.43,3.06,11.99C12.19,46.41,10.57,44.83,9.25,43.44z
		 M13.78,36.02c0-12.25,9.97-22.22,22.22-22.22s22.22,9.97,22.22,22.22S48.25,58.24,36,58.24S13.78,48.27,13.78,36.02z M57.95,48.03
		c1.96-3.57,3.08-7.66,3.08-12.02c0-4.4-1.14-8.54-3.15-12.14c1.87,1.61,3.51,3.21,4.85,4.62c3.21,3.37,5.36,6.29,6.21,7.52
		C67.68,37.87,63.62,43.13,57.95,48.03z"/>
	<path d="M35.99,20.03C35.99,20.03,36,20.03,35.99,20.03c0.79,0,1.43-0.63,1.43-1.4s-0.64-1.41-1.41-1.41c0,0,0,0,0,0
		c-0.77,0-1.41,0.63-1.42,1.4C34.58,19.4,35.21,20.03,35.99,20.03z"/>
	<path d="M52.86,31.52c0.73-0.26,1.11-1.06,0.85-1.8c-1.97-5.54-6.49-9.89-12.1-11.65c-0.74-0.23-1.53,0.18-1.76,0.92
		c-0.23,0.74,0.18,1.53,0.92,1.76c4.77,1.49,8.61,5.19,10.29,9.91c0.2,0.58,0.75,0.94,1.33,0.94C52.55,31.6,52.71,31.57,52.86,31.52
		z"/>
</g>
</svg>
