<?xml version="1.0" encoding="utf-8"?>
<!-- Generator: Adobe Illustrator 25.2.1, SVG Export Plug-In . SVG Version: 6.00 Build 0)  -->
<svg version="1.1" id="Layer_1" xmlns="http://www.w3.org/2000/svg" xmlns:xlink="http://www.w3.org/1999/xlink" x="0px" y="0px"
	 viewBox="0 0 72 72" style="enable-background:new 0 0 72 72;" xml:space="preserve">
<style type="text/css">
	.st0{fill:#FE443F;}
	.st1{fill:#CC2725;}
	.st2{fill:#FE8E3F;}
	.st3{fill:#DB6A1A;}
	.st4{fill:#F6BC72;}
	.st5{fill:#DE9853;}
	.st6{fill:#D6EFFB;}
	.st7{fill:#ECEBED;}
	.st8{fill:#DFDFE0;}
	.st9{fill:#E5EAED;}
	.st10{fill:none;}
</style>
<g>
	<path class="st4" d="M72,63.75V8.25C72,3.7,68.3,0,63.75,0H8.25C3.7,0,0,3.7,0,8.25v55.5C0,68.3,3.7,72,8.25,72h55.5
		C68.3,72,72,68.3,72,63.75z"/>
	<path class="st0" d="M48,51.75c0,2.9-2.35,5.25-5.25,5.25h-13.5c-2.9,0-5.25-2.35-5.25-5.25v-31.5c0-2.9,2.35-5.25,5.25-5.25h13.5
		c2.9,0,5.25,2.35,5.25,5.25V51.75z"/>
	<path d="M63.75,72H8.25C3.7,72,0,68.3,0,63.75V8.25C0,3.7,3.7,0,8.25,0h55.5C68.3,0,72,3.7,72,8.25v55.5C72,68.3,68.3,72,63.75,72z
		 M7.81,4C5.71,4,4,5.71,4,7.81v56.38C4,66.29,5.71,68,7.81,68h56.38c2.1,0,3.81-1.71,3.81-3.81V7.81C68,5.71,66.29,4,64.19,4H7.81z
		"/>
	<path d="M42.75,57h-13.5c-2.9,0-5.25-2.35-5.25-5.25v-31.5c0-2.9,2.35-5.25,5.25-5.25h13.5c2.9,0,5.25,2.35,5.25,5.25v31.5
		C48,54.65,45.65,57,42.75,57z M29.25,19.5c-0.41,0-0.75,0.34-0.75,0.75v31.5c0,0.41,0.34,0.75,0.75,0.75h13.5
		c0.41,0,0.75-0.34,0.75-0.75v-31.5c0-0.41-0.34-0.75-0.75-0.75H29.25z"/>
	<path d="M39.75,28.5h-7.5c-1.24,0-2.25-1.01-2.25-2.25S31.01,24,32.25,24h7.5c1.24,0,2.25,1.01,2.25,2.25S40.99,28.5,39.75,28.5z"
		/>
</g>
</svg>
