<?xml version="1.0" encoding="utf-8"?>
<!-- Generator: Adobe Illustrator 25.2.1, SVG Export Plug-In . SVG Version: 6.00 Build 0)  -->
<svg version="1.1" id="Layer_1" xmlns="http://www.w3.org/2000/svg" xmlns:xlink="http://www.w3.org/1999/xlink" x="0px" y="0px"
	 viewBox="0 0 72 72" style="enable-background:new 0 0 72 72;" xml:space="preserve">
<style type="text/css">
	.st0{fill:#FE443F;}
	.st1{fill:#CC2725;}
	.st2{fill:#FE8E3F;}
	.st3{fill:#DB6A1A;}
	.st4{fill:#F6BC72;}
	.st5{fill:#DE9853;}
	.st6{fill:#D6EFFB;}
	.st7{fill:#ECEBED;}
	.st8{fill:#DFDFE0;}
	.st9{fill:#E5EAED;}
	.st10{fill:none;}
</style>
<g>
	<path class="st4" d="M62.23,16.41v48.76c0,2.83-2.29,5.11-5.11,5.11H15.23c-2.82,0-5.11-2.28-5.11-5.11V16.41
		c0-2.83,2.29-5.11,5.11-5.11h7.83h0.5v5.91h25.11v-5.91h8.43C59.93,11.29,62.23,13.57,62.23,16.41z"/>
	<path class="st0" d="M48.69,11.29v5.91H23.57v-5.91V6.58h6.22c0.68-2.9,3.16-5.11,6.3-5.11c3.14,0,5.7,2.21,6.3,5.11h6.3V11.29
		L48.69,11.29z"/>
	<path d="M15.06,72h41.88c3.71,0,6.72-2.95,6.72-6.67V16.57c0-3.71-3.01-6.74-6.72-6.74h-6.77V6.74c0-0.9-0.75-1.63-1.64-1.63h-5.09
		C42.24,2.02,39.26,0,35.93,0c-3.32,0-6.25,2.02-7.49,5.11h-5.03c-0.9,0-1.56,0.72-1.56,1.63v3.09h-6.79
		c-3.71,0-6.72,3.03-6.72,6.74v48.76C8.34,69.05,11.35,72,15.06,72z M25.1,8.37h4.52c0.75,0,1.42-0.52,1.58-1.25
		c0.54-2.31,2.44-3.86,4.72-3.86s4.25,1.61,4.7,3.81c0.16,0.75,0.81,1.3,1.59,1.3h4.69v7.32H25.1L25.1,8.37L25.1,8.37z M11.6,16.57
		c0-1.92,1.55-3.48,3.47-3.48h6.79v4.28c0,0.9,0.67,1.58,1.56,1.58h25.11c0.9,0,1.64-0.68,1.64-1.58v-4.28h6.79
		c1.92,0,3.47,1.56,3.47,3.48v48.76c0,1.92-1.55,3.42-3.47,3.42H15.06c-1.92,0-3.47-1.5-3.47-3.42V16.57z"/>
	<path d="M20.45,46.92c0.33,0.33,0.75,0.49,1.17,0.49c0.41,0,0.8-0.15,1.12-0.44l6.64-6.27c0.65-0.62,0.68-1.64,0.07-2.29
		c-0.62-0.65-1.64-0.68-2.29-0.07l-5.47,5.18l-2.38-2.44c-0.62-0.65-1.66-0.67-2.29-0.03c-0.65,0.62-0.67,1.66-0.03,2.29
		L20.45,46.92z"/>
	<path d="M34.3,45.31h19.58c0.9,0,1.63-0.73,1.63-1.63s-0.73-1.63-1.63-1.63H34.3c-0.9,0-1.63,0.73-1.63,1.63S33.4,45.31,34.3,45.31
		z"/>
	<path d="M20.45,33.3c0.33,0.33,0.75,0.49,1.17,0.49c0.41,0,0.8-0.15,1.12-0.44l6.64-6.27c0.65-0.62,0.68-1.64,0.07-2.29
		c-0.62-0.65-1.64-0.68-2.29-0.07l-5.47,5.18l-2.36-2.42c-0.62-0.65-1.66-0.67-2.29-0.03c-0.65,0.62-0.67,1.66-0.03,2.29L20.45,33.3
		z"/>
	<path d="M34.3,31.64h19.58c0.9,0,1.63-0.73,1.63-1.63s-0.73-1.63-1.63-1.63H34.3c-0.9,0-1.63,0.73-1.63,1.63S33.4,31.64,34.3,31.64
		z"/>
	<path d="M20.45,60.54c0.33,0.33,0.75,0.49,1.17,0.49c0.41,0,0.8-0.15,1.12-0.44l6.64-6.27c0.65-0.62,0.68-1.64,0.07-2.29
		c-0.62-0.65-1.64-0.68-2.29-0.07l-5.47,5.18l-2.36-2.42c-0.62-0.65-1.66-0.67-2.29-0.03c-0.65,0.62-0.67,1.66-0.03,2.29
		L20.45,60.54z"/>
	<path d="M34.3,58.98h19.58c0.9,0,1.63-0.73,1.63-1.63c0-0.9-0.73-1.63-1.63-1.63H34.3c-0.9,0-1.63,0.73-1.63,1.63
		C32.67,58.25,33.4,58.98,34.3,58.98z"/>
</g>
</svg>
