<?xml version="1.0" encoding="iso-8859-1"?><!-- Generator: Adobe Illustrator 19.0.0, SVG Export Plug-In . SVG Version: 6.00 Build 0)  -->
<svg style="enable-background:new 0 0 512 512;" id="Capa_1" version="1.1" viewBox="0 0 512 512" x="0px"
    xmlns="http://www.w3.org/2000/svg" y="0px" xml:space="preserve">
<g>
	<g>
		<g>
			<rect height="192" width="32" x="480" y="320" />
            <polygon points="448,48 448,0 416,0 416,48 96,48 96,0 64,0 64,48 0,48 0,512 96,512 96,480 32,480 32,160 96,160 96,128 32,128
				32,80 480,80 480,128 192,128 192,160 480,160 480,224 512,224 512,48 			" />
            <rect height="32" width="32" x="480" y="256" />
            <rect height="32" width="32" x="128" y="128" />
            <path d="M288,240c0-26.51-21.49-48-48-48c-26.51,0-48,21.49-48,48v128c-35.346,0-64,28.654-64,64v80h32v-80
				c0-17.673,14.327-32,32-32v80h32V240c0-8.837,7.163-16,16-16s16,7.163,16,16v123.904l160,48V512h32V388.096l-160-48V240z" />
            <polygon
                points="80,304 160,304 160,272 112,272 112,240 160,240 160,208 80,208 			" />
            <polygon points="144,336 80,336 80,400 112,400 112,368 144,368 			" />
            <path d="M336,208v96h96v-96H336z M400,272h-32v-32h32V272z" />
		</g>
	</g>
</g>
    <g>
</g>
    <g>
</g>
    <g>
</g>
    <g>
</g>
    <g>
</g>
    <g>
</g>
    <g>
</g>
    <g>
</g>
    <g>
</g>
    <g>
</g>
    <g>
</g>
    <g>
</g>
    <g>
</g>
    <g>
</g>
    <g>
</g>
</svg>
