<?xml version="1.0" encoding="utf-8"?>
<!-- Generator: Adobe Illustrator 25.2.1, SVG Export Plug-In . SVG Version: 6.00 Build 0)  -->
<svg version="1.1" xmlns="http://www.w3.org/2000/svg" xmlns:xlink="http://www.w3.org/1999/xlink" x="0px" y="0px"
	 viewBox="0 0 64 64" style="enable-background:new 0 0 64 64;" xml:space="preserve">
<style type="text/css">
	.st0{display:none;}
	.st1{display:inline;}
	.st2{fill:#FE443F;}
	.st3{fill:#CC2725;}
	.st4{fill:#FE8E3F;}
	.st5{fill:#DB6A1A;}
	.st6{fill:#F6BC72;}
	.st7{fill:#DE9853;}
	.st8{fill:#D6EFFB;}
	.st9{fill:#ECEBED;}
	.st10{fill:#DFDFE0;}
	.st11{fill:#E5EAED;}
	.st12{fill:none;}
</style>
<g id="Layer_1" class="st0">
</g>
<g id="Draftt">
	<path class="st7" d="M12.33,33.9c4.11,0,7.73-2.03,9.97-5.13c2.15,3.1,5.73,5.13,9.78,5.13c4.04,0,7.61-2.02,9.77-5.11
		c2.22,3.09,5.84,5.11,9.93,5.11c7.84,0,13.78-7.6,11.86-15.21L59.9,3.84c-0.57-2.26-2.59-3.83-4.92-3.83H8.99
		c-2.33,0-4.35,1.58-4.92,3.83L0.36,18.6c-1.06,4.21,0.33,7.88,2.79,11.21v29.1c0,2.79,2.26,5.07,5.05,5.07h47.58
		c2.8,0,5.05-2.27,5.05-5.07V40.04c0-1.22-1.03-2.22-2.26-2.22s-2.26,0.99-2.26,2.22v18.88c0,0.35-0.19,0.69-0.54,0.69H41.84V42.3
		c0-1.22-1-2.23-2.22-2.23H24.37c-1.23,0-2.22,1.01-2.22,2.23v17.31H8.21c-0.35,0-0.54-0.34-0.54-0.69V32.97
		C9.03,33.57,10.68,33.9,12.33,33.9L12.33,33.9z M44.03,4.39h10.95c0.29,0,0.54,0.23,0.61,0.51l3.74,14.86
		c1.22,4.83-2.55,9.7-7.54,9.7c-4.3,0-7.77-3.49-7.77-7.78V4.39z M24.61,4.39h15.04v17.29c0,4.17-3.26,7.79-7.53,7.79
		c-4.33,0-7.51-3.66-7.51-7.86V4.39z M26.66,44.58h10.66v15.04H26.66V44.58z M4.66,19.68L8.38,4.9C8.45,4.61,8.7,4.39,8.99,4.39
		H20.1V21.6c0,4.33-3.5,7.86-7.83,7.86C7.23,29.46,3.43,24.57,4.66,19.68L4.66,19.68z"/>
</g>
</svg>
