<?xml version="1.0" encoding="utf-8"?>
<!-- Generator: Adobe Illustrator 25.2.1, SVG Export Plug-In . SVG Version: 6.00 Build 0)  -->
<svg version="1.1" xmlns="http://www.w3.org/2000/svg" xmlns:xlink="http://www.w3.org/1999/xlink" x="0px" y="0px"
	 viewBox="0 0 64 64" style="enable-background:new 0 0 64 64;" xml:space="preserve">
<style type="text/css">
	.st0{display:none;}
	.st1{display:inline;}
	.st2{fill:#FE443F;}
	.st3{fill:#CC2725;}
	.st4{fill:#FE8E3F;}
	.st5{fill:#DB6A1A;}
	.st6{fill:#F6BC72;}
	.st7{fill:#DE9853;}
	.st8{fill:#D6EFFB;}
	.st9{fill:#ECEBED;}
	.st10{fill:#DFDFE0;}
	.st11{fill:#E5EAED;}
	.st12{fill:none;}
</style>
<g id="Layer_1" class="st0">
</g>
<g id="Draftt">
	<path d="M0,61.09C0,62.7,1.3,64,2.91,64s2.91-1.3,2.91-2.91c0-10.27,5.91-19.35,15.12-23.65c3.19,2.07,6.98,3.29,11.06,3.29
		c4.09,0,7.9-1.22,11.09-3.31c2.75,1.3,5.3,3.04,7.42,5.16c4.95,4.95,7.67,11.52,7.67,18.51c0,1.61,1.3,2.91,2.91,2.91
		C62.7,64,64,62.7,64,61.09c0-8.54-3.33-16.58-9.38-22.62c-2.02-2.02-4.37-3.76-6.9-5.19c2.89-3.52,4.63-8.02,4.63-12.91
		C52.36,9.13,43.22,0,32,0S11.63,9.13,11.63,20.36c0,4.89,1.73,9.37,4.61,12.89C6.26,38.87,0,49.38,0,61.09z M32,5.82
		c8.02,0,14.55,6.53,14.55,14.55S40.02,34.91,32,34.91s-14.55-6.53-14.55-14.55S23.98,5.82,32,5.82z"/>
</g>
</svg>
