<svg id="Capa_1" enable-background="new 0 0 512 512" height="512" viewBox="0 0 512 512" width="512" xmlns="http://www.w3.org/2000/svg"><path d="m256 0c-103.526 0-187.751 84.225-187.751 187.751 0 32.724 8.551 64.947 24.729 93.188 14.268 24.908 34.195 46.345 57.95 62.421v168.64h210.145v-168.64c23.755-16.076 43.683-37.513 57.95-62.421 16.178-28.241 24.729-60.465 24.729-93.188-.001-103.526-84.226-187.751-187.752-187.751zm-75.072 391.904h150.145v30.048h-150.145zm15.024-189.129c-8.284 0-15.024-6.74-15.024-15.024s6.74-15.023 15.024-15.023 15.023 6.739 15.023 15.023-6.739 15.024-15.023 15.024zm75.072 30v129.129h-30.049v-129.129zm30-45.024c0-8.284 6.739-15.023 15.023-15.023s15.024 6.739 15.024 15.023-6.74 15.024-15.024 15.024-15.023-6.74-15.023-15.024zm-120.096 294.249v-30.048h150.145v30.048zm212.063-215.972c-13.184 23.015-32.116 42.505-54.751 56.363l-7.168 4.389v35.124h-30.048v-129.129h15.023c24.826 0 45.024-20.198 45.024-45.024s-20.198-45.023-45.024-45.023-45.023 20.197-45.023 45.023c0 5.267.917 10.323 2.587 15.024h-35.223c1.67-4.702 2.587-9.757 2.587-15.024 0-24.826-20.197-45.023-45.023-45.023s-45.024 20.197-45.024 45.023 20.198 45.024 45.024 45.024h15.023v129.129h-30.048v-35.124l-7.168-4.389c-22.635-13.858-41.567-33.349-54.751-56.363-13.581-23.709-20.76-50.777-20.76-78.277.001-86.984 70.768-157.751 157.752-157.751s157.751 70.767 157.751 157.751c0 27.5-7.179 54.568-20.76 78.277z"/></svg>